<svg xmlns="http://www.w3.org/2000/svg" width="512" height="512" viewBox="0 0 512 512"><path d="M256 170.136c25.499 0 49.567 10.025 67.771 28.229C341.975 216.568 352 240.637 352 266.136c0 17.621-4.422 34.031-13.144 48.773-8.339 14.098-20.437 26.036-34.985 34.526L288 358.697V448h-64v-89.303l-15.871-9.262C178.442 332.111 160 300.192 160 266.136c0-25.499 10.025-49.567 28.229-67.771s42.272-28.229 67.771-28.229M277.333 32h-42.666v64h42.666V32zm129.063 53.864L368 124.271l29.864 29.865 38.406-38.396-29.874-29.876zm-300.792 0l-29.875 29.875 38.406 38.396L144 124.271l-38.396-38.407zM256 138.136c-70.396 0-128 57.604-128 128 0 46.938 25.604 88.531 64 110.938V480h128V377.073c38.396-22.406 64-62.938 64-110.938 0-70.396-57.604-127.999-128-127.999zm224 106.666h-64v42.667h64v-42.667zm-384 0H32v42.667h64v-42.667z"/></svg>