<svg xmlns="http://www.w3.org/2000/svg" width="512" height="512" viewBox="0 0 512 512"><path d="M143.5 192.5V416c0 8.836 7.851 16.5 16.688 16.5h208c8.836 0 15.312-7.664 15.312-16.5V192.5h-240zm216 151.5a8 8 0 0 1-16 0v-48a8 8 0 0 1 16 0v48zm-7.312-72c-4.418 0-8-3.581-8-8s3.582-8 8-8a8 8 0 1 1 0 16z"/><path d="M445.078 32.5h-316.64c-54.345 0-64.594 27.426-64.594 39.75C94.094 76.5 95.5 77 95.5 109v307c0 35.346 29.341 64.5 64.688 64.5h207.75c35.346 0 63.562-29.154 63.562-64.5V80.5c0-20.349 12.298-38.276 13.516-40.183 1.219-1.906 3-3.798 3-4.958 0-1.171-.416-2.859-2.938-2.859zm-45.578 48V416c0 17.92-12.443 32.5-29.812 32.5h-209.5c-17.617 0-32.688-14.883-32.688-32.5V109c0-11.812 1.094-37.25-3.828-43.957.921-.793 3.114-.543 4.516-.543h272.66c-.736 0-1.348 10.799-1.348 16z"/></svg>