<svg xmlns="http://www.w3.org/2000/svg" width="512" height="512" viewBox="0 0 512 512"><path d="M416 160h-32v-16c14.5-3.5 32-24.3 32-48 0-35.3-28.7-64-64-64-16.3 0-31.1 6.1-42.4 16.1C297.2 38 281.4 32 264.2 32c-15.8 0-30.4 5.1-42.3 13.7C212 37.2 199 32 184.9 32c-17.1 0-32.4 7.6-42.8 19.5-11.7-12-28-19.5-46.1-19.5-35.3 0-64 28.7-64 64 0 16.2 6.1 31 16 42.3V193c0 26.5 21.5 48 48 48v223c0 8.8 7.2 16 16 16h256c8.8 0 16-7.2 16-16v-80h32c35.3 0 64-28.7 64-64v-96c0-35.3-28.7-64-64-64zm-88.2 144c-1.6 0-3-.6-4.3-1.4-2.2-1.4-3.5-4-3.5-6.8V248c0-4.4 3.6-8 8-8s8 3.6 8 8v48.1c0 5-3.8 7.9-8.2 7.9zm7.2-75.6c-1.2 1.8-3 3-5.1 3.5-2.1.4-4.3 0-6-1.1-1.8-1.2-3-3-3.5-5.1-.4-2.1 0-4.3 1.1-6 1.2-1.8 3-3 5.1-3.5 2.1-.4 4.3 0 6 1.1 1.8 1.2 3 3 3.5 5.1.5 2 .1 4.2-1.1 6zm17-68.4v32H224.2c-.1-4.3-3.6-7.8-8-7.8s-7.9 3.5-8 7.8H128v-40.6c6.5-3.8 12.3-8.6 17-14.3 1.2-1.5 2.4-3 3.5-4.6 1.5 1.2 3 2.4 4.6 3.4 9.1 6.1 20 9.7 31.7 9.7 6.4 0 12.6-1.1 18.3-3 12.8 20.2 35.3 33.7 61 33.7 22 0 41.7-9.9 54.9-25.4 5.7-6.7 10.2-14.4 13.1-22.9H352v32zm30.6-54.8c-2.5-5.5-8.1-9.2-14.6-9.2h-55s-8.7-.7-8.7 8.2-2.9 17.1-7.8 23.7c-7.3 9.9-19.1 16.4-32.4 16.4-14.9 0-27.9-8.1-34.8-20.2-1.6-2.7-2.8-5.6-3.7-8.6-.1-.6-.3-1.1-.4-1.6-2-5.9-7.5-10.2-14.1-10.2-3.9 0-7.5 1.5-10.2 4l-.1.1c-2.4 2.1-5.3 3.7-8.4 4.7-2.4.8-5 1.2-7.7 1.2-7.5 0-14.7-4-18.8-8.6-10-11.4-23.7-6.8-29.7-5.5S124 111.3 124 111.3c-1.1 2.1-2.5 4-4 5.8-5.9 6.7-14.5 11-24.1 11v81c-8.8 0-16-7.2-16-16v-69.3c-7.7-4.5-13.4-12.1-15.3-21-.5-2.1-.7-4.4-.7-6.7 0-17.6 14.4-32 32-32 11.8 0 23.3 7.7 30.1 15.4s26.7 7.7 33.9 0c6.8-7.3 14.3-15.4 24.8-15.4 6 0 11.6 2.2 15.9 5.8 1.9 1.6 3.6 3.5 4.9 5.6 1.1 1.8 2 4.2 3.1 5.8 2.7 3.4 6.5 5.5 11.2 5.5 4.4 0 8.3-1.9 11-5 .6-.7 1.2-1.5 1.7-2.3 2-2.5 4.2-4.8 6.7-6.8 6.8-5.4 15.5-8.6 24.8-8.6 10.6 0 20.2 4.1 27.4 10.9 1.7 1.6 6.7 4.5 13.2 5.1 4.5.4 6.1.3 8.2 0 10.3-1.3 14.4-4.7 16.4-6.6 5.8-5.8 13.8-9.4 22.6-9.4 17.6 0 32 14.4 32 32 .2 3.1-.3 6.2-1.2 9.1zM448 320c0 17.7-14.3 32-32 32h-32V192h32c17.7 0 32 14.3 32 32v96z"/><circle cx="168.2" cy="168.2" r="8"/><circle cx="328.2" cy="168.2" r="8"/></svg>