<svg xmlns="http://www.w3.org/2000/svg" width="512" height="512" viewBox="0 0 512 512"><path d="M270.93 350.601C270.219 342.42 263.364 336 255 336c-7.635 0-14.01 5.352-15.605 12.506l-.007-.002-15.612 92.502A32.046 32.046 0 0 0 223 448c0 17.673 14.327 32 32 32s32-14.327 32-32c0-2.899-.393-5.705-1.115-8.377l-14.955-89.022zm34.974 4.445l-.001-.002-.003.002z"/><path d="M392.875 390.261c-1.718-1.407-3.3-2.881-5.138-3.94l-63.629-47.507c-5.775-3.796-11.997-3.689-16.527.85-4.131 4.143-4.686 10.369-1.678 15.381l48.959 65.763c.946 1.494 2.166 2.799 3.366 4.195 7.802 9.071 25.08 9.588 34.646-.007 9.571-9.587 9.431-27.01.001-34.735zm-20.364-55.243h-.002v.002z"/><path d="M435.428 322.475l-59.521-2.284c-3.891-.558-7.4 2.053-8.065 6.011-.604 3.611 1.347 7.138 4.668 8.816l.013-.039c.041.019.062.006.105.025l57.717 17.756c8.289 1.93 17.656-2.343 17.656-11.648-.001-11.784-3.084-17.445-12.573-18.637zM139.222 335.02v-.002h-.002z"/><path d="M139.209 334.979l.013.039c3.321-1.679 5.272-5.205 4.668-8.816-.665-3.958-4.175-6.568-8.065-6.011l-59.521 2.284C66.813 323.667 64 329.328 64 341.111c0 9.306 9.098 13.578 17.387 11.648l57.717-17.756c.042-.019.064-.006.105-.024zm48.694 3.828l-63.597 47.431a24.543 24.543 0 0 0-5.137 3.931c-9.563 9.567-9.566 25.088-.004 34.65 9.561 9.571 25.055 9.578 34.618.007a24.3 24.3 0 0 0 3.352-4.185L206.097 355c3.007-5 2.452-11.213-1.677-15.346-4.527-4.528-11.708-4.892-16.517-.847zM352 128c0-61-72.35-96-96-96 12.017 85.553-101.667 119.667-112 192s48 96 48 96c16.333-59.896 72.386-79.997 109.667-105.667C342.333 186.333 352 160.061 352 128zm0 128c5.03-15.613 4.91-49 0-64-8.999 18.5-26.287 34.3-47.186 48.689-8.584 5.911-19.859 11.443-28.83 16.797-18.714 11.165-34.984 21.848-47.329 36.4C240.001 311.25 256.973 320 272 320c35.999 0 64-14.338 80-64z"/><path d="M152.037 160c11.722-15.952 24.856-25.209 38.19-38.362 13.436-13.254 22.077-22.471 27.464-33.173C207.025 67.134 189.842 61.857 176 64c2.333 30.334-29.97 46.567-32 68.657C142.773 146 146.5 156 152.037 160z"/></svg>