<svg xmlns="http://www.w3.org/2000/svg" width="512" height="512" viewBox="0 0 512 512"><path d="M0 96v256h512V96H0zm192.508 224H80.129c0-26.582-21.549-48.129-48.129-48.129V192c35.346 0 64-28.653 64-64h96.509C172.576 151.455 160 185.767 160 224s12.576 72.545 32.508 96zm105.581-58.752c-2.582 4.182-5.978 7.602-10.189 10.257-4.214 2.655-9.004 4.607-14.375 5.835a74.172 74.172 0 0 1-8.524 1.432V288h-18v-9.43a65.356 65.356 0 0 1-8.072-1.541c-5.688-1.475-10.641-3.659-14.851-6.709-4.214-3.047-7.584-6.803-10.11-11.573-2.42-4.561-3.728-10.747-3.928-15.747h19.735c.096 3 .828 6.532 2.201 9.184 1.473 2.853 3.526 4.883 6.16 6.7 2.572 1.78 5.532 3.082 8.863 3.919v-34.358a1410.71 1410.71 0 0 1-7.758-1.938c-4.846-1.18-8.873-2.729-12.085-4.646-3.214-1.918-5.766-4.057-7.661-6.417-1.896-2.359-3.238-4.867-4.028-7.522a28.266 28.266 0 0 1-1.186-8.113c0-5.31 1.186-9.905 3.556-13.791 2.368-3.883 5.502-7.104 9.398-9.662 3.895-2.556 8.319-4.448 13.27-5.679a63.196 63.196 0 0 1 6.494-1.248V160h18v9.499c2.46.353 4.856.838 7.18 1.473 5.215 1.427 9.796 3.563 13.744 6.414 3.95 2.854 7.083 6.364 9.4 10.542 2.109 3.811 3.258 8.072 3.445 13.072h-19.866c-.753-6-3.175-10.326-7.274-12.923-1.966-1.246-4.186-2.196-6.629-2.887v30.368c2.589.639 5.15 1.268 7.654 1.878 3.421.836 5.87 1.453 7.346 1.844 3.686 1.083 6.897 2.558 9.637 4.425 2.737 1.869 5.028 4.008 6.873 6.417 1.841 2.411 3.21 4.992 4.107 7.744.893 2.753 1.343 5.51 1.343 8.262.001 5.899-1.291 10.942-3.87 15.12zM480 271.871c-26 0-48 21.547-48 48.129H319.491C339.424 296.545 352 262.233 352 224s-12.576-72.545-32.51-96H416c0 35.347 28.653 64 64 64v79.871z"/><circle cx="96" cy="224" r="32"/><circle cx="416" cy="224" r="32"/><path d="M272.893 235.21a121.96 121.96 0 0 0-7.893-2.389v30.856c1.592-.23 3.069-.547 4.416-.959 3.053-.934 5.529-2.139 7.425-3.613s3.264-3.171 4.107-5.089c.842-1.917 1.263-3.858 1.263-5.827 0-4.031-.975-7.006-2.921-8.924-1.95-1.916-4.084-3.266-6.397-4.055zm-36.889-44.251c-1.318 1.771-1.975 3.982-1.975 6.638 0 3.738 1.236 6.663 3.712 8.776 2.377 2.034 5.468 3.583 9.259 4.661v-26.356c-2.18.45-4.192 1.135-6.02 2.078a14.248 14.248 0 0 0-4.976 4.203zM0 384h512v32H0z"/></svg>