<svg xmlns="http://www.w3.org/2000/svg" width="512" height="512" viewBox="0 0 512 512"><path d="M73.3 391c1.8 3 2.8 6.4 2.8 10.2L64 464l56.2-22.1c2.7-1.1 5.6-1.7 8.7-1.7 2.8 0 5.5.5 8 1.4h.2c.4.2.8.3 1.2.5 17.8 7.3 37.4 11.4 57.9 11.4 46.3 0 87.6-20.5 114.8-52.6-14.1 3.6-28.9 5.7-44.1 5.7-95.9 0-173.7-75-173.7-167.5 0-11.8 1.3-23.2 3.7-34.3-30 26.1-48.9 63.8-48.9 105.8 0 28.4 8.6 55.2 23.5 77.5.6.8 1.2 1.9 1.8 2.9z"/><path d="M290.3 48c-83.7 0-153.6 57.2-170 133.2-2.4 11.1-3.7 22.5-3.7 34.3 0 92.5 77.7 167.5 173.7 167.5 15.3 0 30-2.1 44.1-5.7 8.1-2.1 16.1-4.5 23.8-7.6.5-.2.9-.4 1.4-.6.1 0 .2 0 .2-.1 2.9-1.1 6.1-1.7 9.3-1.7 3.6 0 7 .7 10.1 2l68.6 25.8-17-73.8c0-4.4 1.2-8.6 3.3-12.2.6-1.1 1.4-2.1 2.1-3.1 17.4-26.1 27.5-57.2 27.5-90.5C464 123 386.3 48 290.3 48z"/></svg>