<svg xmlns="http://www.w3.org/2000/svg" width="512" height="512" viewBox="0 0 512 512"><path d="M255.988 32C132.285 32 32 132.298 32 256c0 123.715 100.285 224 223.988 224C379.703 480 480 379.715 480 256c0-123.702-100.297-224-224.012-224zm135.773 359.765a193.666 193.666 0 0 1-32.886 26.42l-15.946-27.62-13.856 8 15.955 27.636c-24.838 13.03-52.372 20.455-81.027 21.624V416h-16v31.825c-28.656-1.166-56.191-8.59-81.03-21.62l15.958-27.641-13.856-8-15.949 27.625a193.574 193.574 0 0 1-32.889-26.424 193.571 193.571 0 0 1-26.422-32.889l27.624-15.949-8-13.855-27.641 15.958c-13.03-24.839-20.454-52.374-21.621-81.03H96v-16H64.175c1.167-28.655 8.592-56.19 21.623-81.029l27.638 15.958 8-13.856-27.623-15.948a193.662 193.662 0 0 1 26.419-32.885 193.632 193.632 0 0 1 32.89-26.426l15.949 27.624 13.856-8-15.958-27.64C191.81 72.765 219.345 65.34 248 64.175V96h16V64.176c28.654 1.169 56.188 8.595 81.026 21.626l-15.954 27.634 13.856 8 15.945-27.618a193.672 193.672 0 0 1 32.886 26.421 193.609 193.609 0 0 1 26.424 32.887l-27.619 15.946 8 13.856 27.636-15.956c13.031 24.839 20.457 52.373 21.624 81.027H416v16h31.824c-1.167 28.655-8.592 56.189-21.622 81.028l-27.637-15.957-8 13.856 27.621 15.947a193.57 193.57 0 0 1-26.425 32.892z"/><path d="M400 241H284.268A32.136 32.136 0 0 0 272 228.292V160h-32v68.292c-9.562 5.534-16 15.866-16 27.708 0 17.673 14.327 32 32 32 11.425 0 21.444-5.992 27.106-15H400v-32z"/></svg>