<svg xmlns="http://www.w3.org/2000/svg" width="512" height="512" viewBox="0 0 512 512"><path d="M330.967 284.104c6.48-6.467 6.48-16.951 0-23.422-6.48-6.467-17.342-6.467-23.823 0L272 295.432V176.58c0-9.151-6.839-16.56-15.999-16.56-9.162 0-16.001 7.408-16.001 16.56v118.852l-35.005-34.75c-6.481-6.467-17.095-6.467-23.573 0-6.482 6.471-6.539 16.955-.057 23.422l63.07 63.023c.02.02.028.037.05.057a16.584 16.584 0 0 0 2.368 1.945c.102.067.2.134.302.2.322.206.651.403.99.587.117.064.231.133.35.193.421.218.849.423 1.292.605l.006.002c.405.167.817.308 1.233.442.112.037.222.085.335.118.151.047.307.074.461.115 1.424.385 2.872.588 4.315.588 1.442 0 2.89-.203 4.312-.588.153-.041.312-.068.464-.115.113-.033.224-.081.335-.118.416-.135.829-.275 1.233-.442l.007-.002c.441-.183.87-.387 1.289-.604.122-.064.24-.133.36-.198a18.53 18.53 0 0 0 1.298-.791c.408-.274.806-.562 1.184-.872l.011-.006c.406-.332.791-.684 1.162-1.051.024-.022.051-.043.074-.066l63.101-63.022z"/><path d="M168 392a23.929 23.929 0 0 1-16.971-7.029l-112-112c-9.373-9.373-9.373-24.569 0-33.941l112-112c9.373-9.372 24.568-9.372 33.941 0 9.371 9.372 9.371 24.568 0 33.941L89.941 256l95.029 95.029c9.371 9.372 9.371 24.568 0 33.941A23.925 23.925 0 0 1 168 392zm176 0a23.929 23.929 0 0 0 16.971-7.029l112-112c9.373-9.373 9.373-24.569 0-33.941l-112-112c-9.373-9.372-24.568-9.372-33.941 0-9.371 9.372-9.371 24.568 0 33.941L422.059 256l-95.029 95.029c-9.371 9.372-9.371 24.568 0 33.941A23.925 23.925 0 0 0 344 392z"/></svg>