<svg xmlns="http://www.w3.org/2000/svg" width="512" height="512" viewBox="0 0 512 512"><circle cx="184.166" cy="256.166" r="24"/><circle cx="256.166" cy="256.166" r="24"/><circle cx="328.166" cy="256.166" r="24"/><path d="M168 392a23.929 23.929 0 0 1-16.971-7.029l-112-112c-9.373-9.373-9.373-24.569 0-33.941l112-112c9.373-9.372 24.568-9.372 33.941 0 9.371 9.372 9.371 24.568 0 33.941L89.941 256l95.029 95.029c9.371 9.372 9.371 24.568 0 33.941A23.925 23.925 0 0 1 168 392zm176 0a23.929 23.929 0 0 0 16.971-7.029l112-112c9.373-9.373 9.373-24.569 0-33.941l-112-112c-9.373-9.372-24.568-9.372-33.941 0-9.371 9.372-9.371 24.568 0 33.941L422.059 256l-95.029 95.029c-9.371 9.372-9.371 24.568 0 33.941A23.925 23.925 0 0 0 344 392z"/></svg>