<svg xmlns="http://www.w3.org/2000/svg" width="512" height="512" viewBox="0 0 512 512"><path d="M256 32c-39 0-75.6 10-107.5 27.4C136.9 42.9 117.7 32 96 32c-35.3 0-64 28.7-64 64 0 21.7 10.9 40.9 27.4 52.5C42 180.4 32 217 32 256c0 123.7 100.3 224 224 224s224-100.3 224-224S379.7 32 256 32zM64 96c0-17.7 14.3-32 32-32 10.5 0 19.8 5 25.6 12.8-17 12.7-32.1 27.8-44.8 44.8C69 115.8 64 106.5 64 96zm327.8 295.8C355.5 428 307.3 448 256 448c-51.3 0-99.5-20-135.8-56.2C84 355.5 64 307.3 64 256c0-51.3 20-99.5 56.2-135.8C156.5 84 204.7 64 256 64c51.3 0 99.5 20 135.8 56.2C428 156.5 448 204.7 448 256c0 51.3-20 99.5-56.2 135.8z"/><path d="M352 128s-101.6 83.7-120 104-72 152-72 152 102.4-82.3 120-104 72-152 72-152z"/></svg>