<svg xmlns="http://www.w3.org/2000/svg" width="512" height="512" viewBox="0 0 512 512"><path d="M357.275 125.525c-2.209-3.986-9.498-11.837-13.977-13.325-5.979-.921-2.398 4.413-2.398 6.7-1.543 1.157-3.941 2.454-5.102 4-.699.6 1.704 6.103 6.337 4.335s1.964 1.799 5.164 8.865 9.607 7.207 12.49 5.067c3.655-2.712-.503-12.012-2.514-15.642zM375.8 170.6l-.005.017c0 .012.002.012.005-.017zm58.8 26.5c.4 0-1.8-.4 0 0z"/><path d="M256 32C132.3 32 32 132.3 32 256c0 123.701 100.3 224 224 224 123.701 0 224-100.299 224-224 0-123.7-100.299-224-224-224zm-82.601 397.424c-5.515-3.133-9.374-7.56-10.961-15.929-3.947-20.808-.303-32.067 17.962-44.245 8.604-5.736 10.022-12.672 16.9-19.55 1.685-2.14 6.211-10.374 9.2-10.8 3.637-.779 13.709-2.527 15.7-6.5 3.79-5.146 12.127-27.398 15.8-29.602 5.997-3.925 14.419-15.96 8.3-23.1-7.021-8.643-16.799-8.766-25.9-13.301-8.015-4.008-11.574-22.281-17.7-28.601-11.912-12.136-29.999-19.199-45-26.7-8.116-3.25-7.344-4.256-13.7 2.1-8.162 8.162-20.093-2.067-21.3-10.5-.09-2.802-3.296-18.216-1.4-19.4 17.956-11.225-8.328-8.64-10.5-13.8-5.355-14.993 13.008-26.86 25.4-28.1 13.885-1.738 16.784 21.895 22.1 19.9 2.556-1.276 2.566-12.394 2.9-14.8 1.267-8.029 3.588-9.273 11.4-12.175 9.098-3.379 16.063-7.617 25.7-9.225 11.006-3.195 20.317-1.533 28.8-8.6 3.888-2.915 6.704 1.58 10.4 2.4 7.999 1.599 9.7-11.1 9.7-15.9-.034-4.665 1.265-8.63-4.7-13.6-7.806-6.069-19.029-.869-25.3 5.4-7.574 7.035-16.357 6.55-13.8-5.6.634-4.433 10.209-9.587 14-12 3.7-2.222 5.904 2.522 10.4 1.4 6.579-1.463 9.034 4.735 16.8 4.8 3.233-.731 14.796-6.881 8.614-19.366.929-.009 1.856-.03 2.786-.03 1.855 0 3.707.034 5.555.086C264.36 72.967 255.59 80.529 260 91.7c8.79 21.475 15.992 3.014 24.7-7 2.849-2.849 4.633-2.211 9.3-3.1 2.896-.483 7.055-9.27 8.393-11.982a189.668 189.668 0 0 1 56.567 24.255c-7.447.792-9.348-1.396-9.234 7.377.042 3.317.297 13.319 5.274 14.15 8.277.975 6.781 6.832 14.551 7.85 7.443.976 2.816 7.553 5.851 14.05 3.393 10.227-19.806 13.302-24.302 14.8-13.64 4.554 6.34 24.41 15.2 22.3 2.817-.704 12.215-1.902 12.867-5.067-.011-.323-1.836-11.012-.867-12.233 1.533-1.934 5.123-2.946 10.776.255 13.374 7.573 20.146 25.7 35.897 29.295 2.146.489 5.86-.15 8.494 2.033 2.231 3.015 7.92 8.416 1.131 8.416-9.017-2.003-13.78.859-21.198-4.874-7.733-5.977-12.543-10.891-22.75-11.076-8.79-.159-16.68-3.819-25.738-2.35-5.05.819-10.038 2.811-14.912 4.3-4.617 1.538-5.51 9.765-10.2 10.7-19.467 4.581-15.261 23.169-18.773 37.913-1.351 5.662-6.025 21.003-.926 26.087 9.12 8.854 19.783 21.035 33.176 22.963 7.206 1.037 22.954-4.576 27.823 2.737 2.062 4.104 7.447-3.03 8.9.601 3.663 10.988-4.263 18.186-4.337 28.551-.11 15.203 9.178 20.57-3.263 34.148-13.642 13.607-4.333 30.788-11.9 47-4.042 8.337-4.808 19.894-10.872 23.777a190.712 190.712 0 0 1-42.714 20.384c-26.627 8.838-55.155 11.672-83.017 8.456a190.256 190.256 0 0 1-42.88-10.065c-3.769-1.363-7.28-2.505-10.472-3.704a192.177 192.177 0 0 1-7.146-3.223zm-41.7-27.095c-.468-.397-.935-.796-1.399-1.198a196.087 196.087 0 0 1-10.06-9.371 195.58 195.58 0 0 1-9.734-10.471l-.105-.123c-.637-.738-1.257-1.486-1.882-2.234C56.834 316.471 49.259 225.004 92.6 155.1c6.078 6.078-4.101 18.024 7.5 26 5.124 3.606 10.021 2.159 9 8.8-.993 6.449 5.355 6.335 6.3 12 2.842 12.429 19.207 18.642 9.9 32.6-9.118 12.625-16.992 26.729-10.1 42.8 2.254 5.86 7.919 11.858 12.222 16.244 7.813 7.966 7.377 3.188 7.377 13.256-.156 4.373 5.261 8.897 4.7 11.7-1.001 8.011-2.904 15.93-3.9 23.9-1.792 28.638-.129 56.662 21.3 78.1-7.969-4.806-15.636-10.249-22.968-16.29a196.52 196.52 0 0 1-2.232-1.881z"/></svg>