<svg xmlns="http://www.w3.org/2000/svg" width="512" height="512" viewBox="0 0 512 512"><path d="M67 148.7c11 5.8 163.8 89.1 169.5 92.1 5.7 3 11.5 4.4 20.5 4.4s14.8-1.4 20.5-4.4c5.7-3 158.5-86.3 169.5-92.1 4.1-2.1 11-5.9 12.5-10.2 2.6-7.6-.2-10.5-11.3-10.5H65.8c-11.1 0-13.9 3-11.3 10.5 1.5 4.4 8.4 8.1 12.5 10.2z"/><path d="M455.7 153.2c-8.2 4.2-81.8 56.6-130.5 88.1l82.2 92.5c2 2 2.9 4.4 1.8 5.6-1.2 1.1-3.8.5-5.9-1.4l-98.6-83.2c-14.9 9.6-25.4 16.2-27.2 17.2-7.7 3.9-13.1 4.4-20.5 4.4s-12.8-.5-20.5-4.4c-1.9-1-12.3-7.6-27.2-17.2L110.7 338c-2 2-4.7 2.6-5.9 1.4-1.2-1.1-.3-3.6 1.7-5.6l82.1-92.5c-48.7-31.5-123.1-83.9-131.3-88.1-8.8-4.5-9.3.8-9.3 4.9v205c0 9.3 13.7 20.9 23.5 20.9h371c9.8 0 21.5-11.7 21.5-20.9v-205c0-4.2.6-9.4-8.3-4.9z"/></svg>