<svg xmlns="http://www.w3.org/2000/svg" width="512" height="512" viewBox="0 0 512 512"><circle cx="432" cy="160" r="64"/><path d="M225 160H33.799c-11.1 0-13.898 3-11.299 10.5 1.5 4.4 8.4 8.1 12.5 10.2 11 5.8 163.799 89.1 169.5 92.1 5.699 3 11.5 4.4 20.5 4.4s14.799-1.4 20.5-4.4c3.79-1.995 72.625-39.497 121.559-66.107C357.594 193.551 352 177.433 352 160H225z"/><path d="M293.199 273.3l82.201 92.5c2 2 2.898 4.4 1.799 5.601-1.199 1.1-3.799.5-5.9-1.4l-98.6-83.2c-14.9 9.601-25.4 16.2-27.199 17.2-7.701 3.9-13.1 4.4-20.5 4.4s-12.801-.5-20.5-4.4c-1.9-1-12.301-7.6-27.201-17.2l-98.6 83.2c-2 2-4.699 2.6-5.9 1.4C71.6 370.3 72.5 367.8 74.5 365.8l82.1-92.5c-48.7-31.5-123.1-83.9-131.301-88.1C16.5 180.7 16 186 16 190.1v205c0 9.3 13.699 20.9 23.5 20.9h371c9.799 0 21.5-11.7 21.5-20.9V240c-21.726 0-41.416-8.673-55.832-22.729-26.001 17.902-57.808 39.754-82.969 56.029z"/></svg>