<svg xmlns="http://www.w3.org/2000/svg" width="512" height="512" viewBox="0 0 512 512"><path d="M438.815 395.7L338.509 246.2c-12.8-20.3-19.009-44.4-19.009-70.2V83c0-19.5 12.592-33.25 15.009-42.083 2.296-8.392.512-8.417-15.188-8.417H192.526c-15.999 0-18.548.009-16.311 8.416C178.633 50 191.5 64.3 191.5 83.5V176c0 25.8-7.285 49.8-20.085 70.2l-49.279 76.5-49.101 72.9c-5.8 9-9.051 20.7-9.051 32.2 0 28 16.347 52.7 63.246 52.7h257.589c46.998 0 63.197-24.7 63.197-52.7-.1-11.5-3.401-23.1-9.201-32.1zM409.218 441c-4.4 4.2-11.602 7.5-24.499 7.5h-257.59c-12.8 0-20.8-3.5-25.199-7.7-2.7-2.6-6-7.05-6-13.35 0-5 1.4-10.125 3.9-14.125l99.039-150.392c15.699-25.199 24.632-55.231 24.632-86.932V64.5h64v111.4c0 31.199 7.761 61.3 23.859 87l100.523 150c2.499 4 3.968 9.25 3.968 14.25-.001 6.4-3.933 11.25-6.633 13.85z"/><path d="M389.217 411.301c.051.075.1.397 0 .249L307.345 288.5H203.698l-81.069 123.151c-1.5 2.1-2.3 5.175-2.3 7.974 0 7.5 6.288 13.875 13.687 13.875h244c7.5 0 13.599-6.725 13.599-14.125-.001-2.5-1.099-6.074-2.398-8.074zM302.021 341.7c-1.5-1.5-2.3-3.601-2.3-5.7s.899-4.2 2.3-5.7c1.5-1.5 3.6-2.3 5.6-2.3 2.102 0 4.2.8 5.602 2.3 1.5 1.5 2.299 3.601 2.299 5.7s-.899 4.2-2.299 5.7c-1.5 1.5-3.5 2.3-5.602 2.3-2 0-4.1-.9-5.6-2.3zm46.899 59c-1.4.898-2.9 1.3-4.302 1.3-2.499 0-5.099-1.3-6.598-3.6l-23.499-35.9c-2.4-3.7-1.4-8.7 2.299-11.1 1.4-.9 2.9-1.301 4.4-1.301 2.6 0 5.1 1.301 6.5 3.601l23.5 35.9c2.398 3.699 1.398 8.699-2.3 11.1z"/></svg>