<svg xmlns="http://www.w3.org/2000/svg" width="512" height="512" viewBox="0 0 512 512"><path d="M445.9 427.1L328 227.9V78c0-7.7-6.5-14-14.5-14S299 70.2 299 78v153.6c0 1.8.6 3.6 1.3 5.3-7.6-11.1-20.6-18.4-35.4-18.4-23.5 0-42.5 18.3-42.5 41 0 16.8 10.5 31.5 25.4 37.5h-72l35-58.5c1.2-2.1 2.1-4.5 2.1-6.9v-30.4c4 3.2 10 5.1 16.1 5.1 15.3 0 27.5-11.9 27.5-26.6 0-14.7-12.2-26.6-27.5-26.6-6.1 0-12.1 1.9-16.1 5.1V78c0-7.7-6.5-14-14.5-14s-14.5 6.2-14.5 14v149.9L66.1 427.1c-2.5 4.3-2.6 9.6 0 13.9 2.6 4.3 7.2 7 12.4 7h355c5.1 0 9.8-2.6 12.4-7 2.6-4.2 2.5-9.6 0-13.9zM282.2 297c14.9-6 25.4-20.8 25.4-37.5 0-5.7-1.2-11.2-3.4-16.1l31 53.6h-53z"/><path d="M265.1 128.6c12 0 21.7-9.4 21.7-20.9 0-11.6-9.7-20.9-21.7-20.9s-21.7 9.4-21.7 20.9c-.1 11.5 9.7 20.9 21.7 20.9z"/></svg>