<svg xmlns="http://www.w3.org/2000/svg" width="512" height="512" viewBox="0 0 512 512"><path d="M393.267 238.088l-.231 10.404c-.814 11.65-3.797 31.912-14.102 54.736a225.395 225.395 0 0 0 4.978-47.164c0-12.096-.958-23.968-2.799-35.544-15.091-94.901-89.626-169.923-184.138-185.518C185.706 32.285 179.048 32 179.048 32c.238.281.465.562.7.844 39.458 47.181 44.1 96.656 37.744 131.85-2.281 12.629-5.978 23.421-9.991 31.605 0 0 3.359-13.911 3.035-29.72-.293-14.234-3.572-30.006-14.986-38.552 3.497 18.378-.752 33.501-9.121 47.729C161.69 217.808 101 249.386 96 327.408v3.836c0 53.692 25.624 98.979 68.719 125.012-6.85-12.344-14.964-35.207-8.733-60.151 3.998 23.669 9.951 36.045 20.879 51.756 8.153 11.721 19.104 19.269 33.095 24.934S238.995 480 255.889 480c55.809 0 105.228-28.567 133.845-71.952l.267.061v-.007c16-25.254 26.1-55.5 26.1-88.019-.001-29.971-8.505-58.012-22.834-81.995z"/></svg>