<svg xmlns="http://www.w3.org/2000/svg" width="512" height="512" viewBox="0 0 512 512"><path d="M160 153.3c0 3.7-3 6.7-6.7 6.7h-50.5c-3.7 0-6.7-3-6.7-6.7v-50.5c0-3.7 3-6.7 6.7-6.7h50.5c3.7 0 6.7 3 6.7 6.7v50.5zm128 0c0 3.7-3 6.7-6.7 6.7h-50.5c-3.7 0-6.7-3-6.7-6.7v-50.5c0-3.7 3-6.7 6.7-6.7h50.5c3.7 0 6.7 3 6.7 6.7v50.5zm128 0c0 3.7-3 6.7-6.7 6.7h-50.5c-3.7 0-6.7-3-6.7-6.7v-50.5c0-3.7 3-6.7 6.7-6.7h50.5c3.7 0 6.7 3 6.7 6.7v50.5zm-256 128c0 3.7-3 6.7-6.7 6.7h-50.5c-3.7 0-6.7-3-6.7-6.7v-50.5c0-3.7 3-6.7 6.7-6.7h50.5c3.7 0 6.7 3 6.7 6.7v50.5zm128 0c0 3.7-3 6.7-6.7 6.7h-50.5c-3.7 0-6.7-3-6.7-6.7v-50.5c0-3.7 3-6.7 6.7-6.7h50.5c3.7 0 6.7 3 6.7 6.7v50.5zm128 0c0 3.7-3 6.7-6.7 6.7h-50.5c-3.7 0-6.7-3-6.7-6.7v-50.5c0-3.7 3-6.7 6.7-6.7h50.5c3.7 0 6.7 3 6.7 6.7v50.5zm-256 128c0 3.7-3 6.7-6.7 6.7h-50.5c-3.7 0-6.7-3-6.7-6.7v-50.5c0-3.7 3-6.7 6.7-6.7h50.5c3.7 0 6.7 3 6.7 6.7v50.5zm128 0c0 3.7-3 6.7-6.7 6.7h-50.5c-3.7 0-6.7-3-6.7-6.7v-50.5c0-3.7 3-6.7 6.7-6.7h50.5c3.7 0 6.7 3 6.7 6.7v50.5zm128 0c0 3.7-3 6.7-6.7 6.7h-50.5c-3.7 0-6.7-3-6.7-6.7v-50.5c0-3.7 3-6.7 6.7-6.7h50.5c3.7 0 6.7 3 6.7 6.7v50.5z"/></svg>