<svg xmlns="http://www.w3.org/2000/svg" width="512" height="512" viewBox="0 0 512 512"><path d="M256 32C132.288 32 32 132.288 32 256s100.288 224 224 224 224-100.288 224-224S379.712 32 256 32zM103.272 253.324c-8.272-5.574-9.249-15.145-3.747-22.207C110.074 217.573 123.25 208 144.137 208s34.174 9.593 44.655 23.174c5.464 7.076 3.765 17.011-3.787 22.144-2.915 1.975-6.341 2.683-9.922 2.683-5.412 0-10.539-2.119-13.716-6.223-3.398-4.416-7.621-9.777-17.23-9.777-9.561 0-13.818 5.387-17.269 9.821-3.163 4.069-8.274 6.178-13.669 6.179-3.581-.001-7.013-.714-9.927-2.677zm290.973 57.621C370.607 356.719 316.344 384 256.004 384c-61.869 0-117.55-28.235-138.556-73.677-3.663-7.939-.191-17.383 7.734-21.057a15.845 15.845 0 0 1 6.658-1.463c6.163 0 11.818 3.61 14.407 9.199C162.164 331.438 206.27 352 256.004 352c48.602 0 91.8-20.269 110.053-55.615a15.829 15.829 0 0 1 14.104-8.588c2.532 0 5.06.621 7.308 1.796 7.732 4.005 10.785 13.591 6.776 21.352zm14.761-57.628c-2.915 1.975-6.341 2.683-9.922 2.683-5.412 0-10.539-2.119-13.717-6.223-3.398-4.416-7.62-9.777-17.23-9.777-9.561 0-13.817 5.387-17.268 9.821-3.163 4.069-8.275 6.178-13.67 6.179-3.581 0-7.014-.713-9.928-2.676-8.271-5.574-9.248-15.145-3.746-22.207C334.074 217.573 347.25 208 368.137 208c20.888 0 34.175 9.593 44.656 23.174 5.464 7.076 3.765 17.011-3.787 22.143z"/></svg>