<svg xmlns="http://www.w3.org/2000/svg" width="512" height="512" viewBox="0 0 512 512"><path d="M229 288c1-18 0-38 8-55 2-5 1-10 1-15-4-21-14-40-15-60 0-1.39 1.004-4.771 1.005-6.157-3.216 2.234-7.607 4.024-11.005 5.157-20 6-17.51 2.573-34.51 13.573l-11.933 7.228c16.343-17.939 38.528-24.781 56.525-38.714.194-15.438.858-30.677 3.137-45.84C185.61 53.496 121.785 54.268 82.123 95.57c-45.497 47.344-45.497 124.101 0 171.445l152.849 159.096c-.085-10.656-.443-21.176-1.972-31.111-6-36-4-71-4-107z"/><path d="M322 301c-11-26-33-44-63-50-.85 0-1.879-.543-2.936-1.319-.023.107-.041.213-.064.319-11 48-23 94-21 142 0 12.227 3.983 25.117 3.833 38.131L256 448l104-108.25c-14.847-10.479-29.572-21.129-38-38.75z"/><path d="M429.874 95.57c-40.426-42.094-105.989-42.094-146.408 0L264 115.403c.075 13.175.213 26.202-3 38.597-2 10-19 19-16 31 3.003 13.213 8.166 25.705 10.732 38.559C271.014 232.084 284.771 242.896 297 256c22.801 26.766 37.747 57.459 65.283 81.371l67.591-70.355c45.501-47.345 45.501-124.102 0-171.446z"/></svg>