<svg xmlns="http://www.w3.org/2000/svg" width="512" height="512" viewBox="0 0 512 512"><path d="M256 32C132.3 32 32 132.3 32 256s100.3 224 224 224 224-100.3 224-224S379.7 32 256 32zm178.3 152.5l-61.5 18.9c-6.3-14-15.1-26.8-26.3-38-11.2-11.2-24-20-38-26.3l18.9-61.5c23.8 9.5 45.6 23.9 64.3 42.5 18.7 18.8 33.1 40.6 42.6 64.4zM256 352c-53 0-96-43-96-96s43-96 96-96 96 43 96 96-43 96-96 96zM120.2 120.2c18.7-18.7 40.5-33 64.3-42.5l18.9 61.5c-14 6.3-26.8 15.1-38 26.3-11.2 11.2-20 24-26.3 38l-61.5-18.9c9.6-23.9 24-45.7 42.6-64.4zM77.7 327.5l61.5-18.9c6.3 14 15.1 26.8 26.3 38s24 20 38 26.3l-18.9 61.5c-23.8-9.5-45.6-23.9-64.3-42.5-18.7-18.8-33.1-40.6-42.6-64.4zm314.1 64.3c-18.7 18.7-40.5 33-64.3 42.5l-18.9-61.5c14-6.3 26.8-15.1 38-26.3s20-24 26.3-38l61.5 18.9c-9.6 23.9-24 45.7-42.6 64.4z"/></svg>