<svg xmlns="http://www.w3.org/2000/svg" width="512" height="512" viewBox="0 0 512 512"><path d="M347.621 64c-40.941 0-79.121 14-91.578 44.495C242.5 78 205.408 64 164.466 64 109.265 64 64 89.98 64 143v283h22.14c12.86-26.334 44.238-42 78.325-42 40.224 0 73.877 27.528 81.617 64h19.714c7.739-36.472 41.495-64 81.722-64 34.085 0 61.149 11.666 78.429 42H448V143c0-53.02-45.177-79-100.379-79zM248 410.926C230 385.055 199.27 368 164.5 368c-34.769 0-64.5 10.055-83.5 35.926l-1 .537V141c3-41.825 40.089-61 84.293-61 45.162 0 82.145 18.708 83.363 61.808-.017.729.016 1.459.016 2.192l.328 13.103v253.823zM432 148v255.926C414 378.055 382.269 368 347.5 368c-34.77 0-65.5 17.055-83.5 42.926V144c0-44.112 37.659-64 83.587-64C391.79 80 429 91.175 432 133v15z"/></svg>