<svg xmlns="http://www.w3.org/2000/svg" width="512" height="512" viewBox="0 0 512 512"><path d="M256 48C141.137 48 48 141.136 48 256s93.137 208 208 208c114.871 0 208-93.138 208-208S370.871 48 256 48zm124.797 352.032a191.721 191.721 0 0 1-12.942 10.272c-21.704-50.015-50.938-95.795-87.168-136.465a530.98 530.98 0 0 1-48.156 44.28c27.659 35.364 44.916 79.254 47.189 127.069a191.171 191.171 0 0 1-15.944 1.303c-1.103-24.727-6.5-48.721-16.114-71.45a206.935 206.935 0 0 0-27.68-47.037 527.798 527.798 0 0 1-100.91 60.526 192.369 192.369 0 0 1-11.115-12.529c36.28-16.134 70.291-36.271 101.705-60.186a212.54 212.54 0 0 0-6.584-6.895c-19.107-19.107-41.354-34.107-66.12-44.583-22.015-9.312-46.212-14.964-71.45-16.108.217-5.379.648-10.703 1.303-15.959 61.62 2.929 116.713 30.753 155.45 73.638a518.323 518.323 0 0 0 39.778-35.87 529.307 529.307 0 0 0 7.812-7.988 526.675 526.675 0 0 0-9.812-10.09c-45.887-45.886-99.137-82.145-158.332-107.832a191.982 191.982 0 0 1 10.272-12.939c63.951 28.387 121.212 69.101 168.767 119.132a513.127 513.127 0 0 0 30.319-36.965c-40.347-37.271-66.956-89.188-71.388-147.312a192.604 192.604 0 0 1 15.99-.702c1.738 22.238 6.974 43.838 15.671 64.401 10.476 24.767 25.476 47.013 44.583 66.12 1.5 1.5 3.025 2.965 4.562 4.413 20.226-29.031 37.379-60.104 51.287-92.987.285-.674.555-1.353.835-2.028a192.016 192.016 0 0 1 12.779 10.835 527.127 527.127 0 0 1-52.822 94.716 206.91 206.91 0 0 0 49.479 29.635c20.631 8.727 42.305 13.978 64.62 15.698a191.785 191.785 0 0 1-.688 15.991c-46.278-3.479-88.631-21.018-122.801-48.359a530.62 530.62 0 0 1-31.556 38.336c36.475 40.77 66.691 87.247 89.181 137.919z"/></svg>