<svg id="Layer_1" xmlns="http://www.w3.org/2000/svg" width="512" height="512" viewBox="0 0 512 512"><path class="st0" d="M247 96h18v56h-18zm0 260h18v60h-18zm113-109h56v18h-56zm-264 0h60v18H96z"/><path transform="rotate(134.999 347.405 341.317)" class="st0" d="M339 317.4h16.8v47.8H339z"/><path transform="rotate(134.999 170.67 164.582)" class="st0" d="M162.2 140.7H179v47.9h-16.8z"/><path transform="rotate(45.001 347.406 164.562)" class="st0" d="M339 140.7h16.8v47.8H339z"/><path transform="rotate(45.009 170.67 341.27)" class="st0" d="M162.2 317.4H179v47.9h-16.8z"/><path class="st0" d="M256 331.8c-41.8 0-75.8-34-75.8-75.8s34-75.8 75.8-75.8 75.8 34 75.8 75.8-34 75.8-75.8 75.8zm0-134.7c-32.5 0-58.9 26.4-58.9 58.9s26.4 58.9 58.9 58.9 58.9-26.4 58.9-58.9-26.4-58.9-58.9-58.9z"/></svg>