<svg xmlns="http://www.w3.org/2000/svg" width="512" height="512" viewBox="0 0 512 512"><path d="M416.349 256.046c-.001-21.013 13.143-38.948 31.651-46.062a196.302 196.302 0 0 0-23.664-57.139 49.423 49.423 0 0 1-20.082 4.254c-12.621 0-25.238-4.811-34.871-14.442-14.863-14.863-18.248-36.846-10.18-54.97A196.274 196.274 0 0 0 302.074 64C294.971 82.529 277.027 95.69 256 95.69c-21.025 0-38.969-13.161-46.073-31.69a196.243 196.243 0 0 0-57.128 23.688c8.068 18.122 4.683 40.104-10.181 54.97-9.631 9.631-22.25 14.443-34.871 14.443a49.429 49.429 0 0 1-20.083-4.255A196.273 196.273 0 0 0 64 209.984c18.509 7.112 31.652 25.049 31.652 46.062 0 21.008-13.132 38.936-31.63 46.054a196.318 196.318 0 0 0 23.692 57.128 49.428 49.428 0 0 1 20.032-4.232c12.622 0 25.239 4.812 34.871 14.443 14.841 14.841 18.239 36.781 10.215 54.889a196.257 196.257 0 0 0 57.13 23.673c7.128-18.479 25.046-31.596 46.038-31.596 20.992 0 38.91 13.115 46.037 31.596a196.234 196.234 0 0 0 57.132-23.675c-8.023-18.106-4.626-40.046 10.216-54.887 9.629-9.632 22.248-14.444 34.868-14.444 6.836 0 13.67 1.411 20.033 4.233a196.318 196.318 0 0 0 23.692-57.128c-18.498-7.119-31.629-25.048-31.629-46.054zM256.9 335.9c-44.3 0-80-35.9-80-80 0-44.101 35.7-80 80-80 44.299 0 80 35.899 80 80 0 44.1-35.701 80-80 80z"/></svg>