<svg xmlns="http://www.w3.org/2000/svg" width="512" height="512" viewBox="0 0 512 512"><path d="M456.821 182.377C436.782 162.788 410.062 152 381.585 152c-28.477 0-55.195 10.788-75.21 30.354l-39.106 37.885 25.06 24.689 38.843-37.769c13.458-13.095 31.321-20.307 50.299-20.307 18.979 0 36.841 7.212 50.282 20.291 13.363 13.077 20.712 30.468 20.693 48.97-.019 18.443-7.363 35.75-20.677 48.728-13.458 13.095-31.32 20.307-50.299 20.307-18.978 0-36.841-7.212-50.291-20.299l-125.533-122.49C185.491 162.782 158.778 152 130.427 152c-28.477 0-55.195 10.788-75.23 30.373-20.094 19.613-31.174 45.759-31.197 73.62-.024 27.822 11.055 53.973 31.192 73.63C75.232 349.212 101.951 360 130.427 360c28.475 0 55.194-10.788 75.223-30.363l38.994-37.909-25.088-24.502-38.829 37.615c-13.458 13.095-31.321 20.307-50.3 20.307-18.977 0-36.839-7.212-50.28-20.291-13.364-13.077-20.714-30.469-20.694-48.971.019-18.443 7.363-35.749 20.678-48.727 13.458-13.095 31.32-20.307 50.297-20.307 18.979 0 36.842 7.212 50.292 20.299L306.252 329.64C326.406 349.218 353.119 360 381.47 360c28.476 0 55.194-10.788 75.213-30.355 20.179-19.573 31.301-45.727 31.317-73.64.017-27.838-11.058-53.987-31.179-73.628z"/></svg>