<svg xmlns="http://www.w3.org/2000/svg" width="512" height="512" viewBox="0 0 512 512"><path d="M395.057 228.247c-28.651 0-64.502 7.35-92.66 14.518a47.921 47.921 0 0 0-4.001-9.817c24.97-14.84 55.487-34.98 75.733-55.224 39.547-39.547 52.023-68.458 40.44-80.042-11.584-11.583-40.495.893-80.042 40.44-20.225 20.225-40.343 50.698-55.178 75.654a47.96 47.96 0 0 0-9.822-4.089c7.156-28.133 14.475-63.897 14.475-92.492C284.002 61.266 272.382 32 256 32s-28.002 29.266-28.002 85.194c0 28.595 7.319 64.359 14.475 92.492a47.96 47.96 0 0 0-9.822 4.089c-14.835-24.956-34.953-55.43-55.176-75.653-39.548-39.547-68.458-52.024-80.042-40.44-11.584 11.583.894 40.494 40.44 80.041 20.246 20.244 50.762 40.384 75.732 55.224a47.921 47.921 0 0 0-4.001 9.817c-28.158-7.168-64.008-14.518-92.659-14.518C61.016 228.247 32 239.618 32 256s29.016 28.252 84.944 28.252c28.697 0 64.613-7.371 92.792-14.551a47.982 47.982 0 0 0 4.083 9.724c-25.009 14.852-55.645 35.049-75.946 55.351-39.547 39.548-52.023 68.459-40.44 80.043 11.584 11.584 40.495-.895 80.042-40.441 20.323-20.323 40.542-51.001 55.398-76.024a47.969 47.969 0 0 0 9.718 3.995c-7.192 28.203-14.592 64.207-14.592 92.959 0 55.929 11.62 84.693 28.002 84.693s28.002-28.766 28.002-84.693c0-28.752-7.4-64.756-14.592-92.959a47.969 47.969 0 0 0 9.718-3.995c14.855 25.023 35.073 55.701 55.399 76.025 39.547 39.547 68.457 52.024 80.041 40.44s-.894-40.495-40.439-80.043c-20.304-20.302-50.938-40.499-75.947-55.351a47.982 47.982 0 0 0 4.083-9.724c28.18 7.18 64.096 14.551 92.792 14.551 55.929 0 84.943-11.62 84.943-28.002s-29.017-28.003-84.944-28.003z"/><path d="M296.467 353.945s7.031 41.059 1.854 75.946c11.678 21.779 26.139 35.253 36.643 35.253 1.749 0 3.432-.324 5.042-.976 11.874-4.797 14.385-24.984 4.855-58.491-24.53-17.673-48.394-51.732-48.394-51.732zm-80.97-195.625s-7.747-40.82-1.818-75.712c-13.292-23.51-26.139-35.255-36.644-35.255-1.749 0-3.431.325-5.042.976-11.868 4.795-14.497 23.211-4.87 58.441 21.252 15.98 48.374 51.55 48.374 51.55zm-57.191 138.397s-41.308 6.119-75.949 1.852c-27.422 15.505-38.836 30.402-34.277 41.687 2.806 6.944 10.913 10.675 23.842 10.675 9.182 0 22.434-1.559 34.672-5.826 17.405-23.935 51.712-48.388 51.712-48.388zm195.417-80.938s40.778-7.28 75.918-1.849c27.424-15.504 38.838-30.402 34.279-41.685-2.806-6.945-10.914-10.675-23.844-10.675-9.178 0-21.4 1.715-34.654 5.822-18.088 23.774-51.699 48.387-51.699 48.387zM163.135 408.98c-8.42 30.34-5.956 48.938 5.244 53.69a13.372 13.372 0 0 0 5.275 1.066c11.107 0 24.698-13.124 39.528-39.015-4.184-32.22 2.351-70.779 2.351-70.779s-21.534 31.394-52.398 55.038zM348.77 103.87c8.397-31.87 6.096-49.271-5.147-54.044a13.392 13.392 0 0 0-5.274-1.066c-11.105 0-26.207 14.287-39.527 39.013 4.514 22.894-2.393 71.053-2.393 71.053s23.238-34.326 52.341-54.956zM87.524 213.432c29.726-3.932 70.688 2.336 70.688 2.336S121 187.067 103.209 163.367C93 159.5 80.717 158.366 72.457 158.366c-12.267 0-20.042 3.573-22.881 10.261-5.004 11.792 9.97 29.985 37.948 44.805zm336.953 85.634c-25.307 5.6-70.78-2.35-70.78-2.35s34.638 25.615 55.014 52.393c11.959 4.223 22.555 5.022 30.833 5.022 12.266 0 20.041-3.573 22.88-10.261 5.004-11.79-8.141-28.069-37.947-44.804z"/></svg>