<svg xmlns="http://www.w3.org/2000/svg" width="512" height="512" viewBox="0 0 512 512"><path d="M378.605 133.395C305.902 60.691 189.381 47.998 116.85 48c-38.926.001-65.191 3.658-65.191 3.658s-29.984 215.227 81.736 326.947C206.099 451.309 322.617 464 395.148 464c38.927 0 65.193-3.658 65.193-3.658s29.986-215.226-81.736-326.947zM68.124 194.728L194.707 68.146a471.283 471.283 0 0 1 18.112 2.899L71.025 212.838a476.047 476.047 0 0 1-2.901-18.11zm199.188 140.467L296 306.507l-22.627-22.628-28.688 28.688-11.313-11.312 28.688-28.688-22.627-22.627-28.688 28.688-11.313-11.312 28.688-28.688L205.492 216l-28.688 28.688-11.313-11.312 28.689-28.689-22.628-22.627-28.688 28.688-11.314-11.313 67.884-67.883 11.313 11.314-28.688 28.688 22.628 22.627 28.688-28.688 11.313 11.313L216 205.494l22.628 22.628 28.688-28.688 11.314 11.313-28.688 28.688 22.627 22.627 28.688-28.688 11.313 11.312-28.688 28.688 22.628 22.628 28.688-28.688 11.312 11.313-28.688 28.688 22.627 22.627 28.688-28.688 11.314 11.312-67.883 67.884-11.313-11.313 28.688-28.688-22.628-22.628-28.688 28.688-11.315-11.314zm49.947 108.696a470.498 470.498 0 0 1-18.104-2.906L440.979 299.16a474.432 474.432 0 0 1 2.901 18.111l-126.621 126.62z"/></svg>