<svg xmlns="http://www.w3.org/2000/svg" width="512" height="512" viewBox="0 0 512 512"><path d="M462.686 279.369c.132-1.182.257-2.365.369-3.554l.011-.117c.609-6.485.934-13.053.934-19.698 0-114.863-93.13-208-208-208-7.951 0-15.792.462-23.512 1.331l-.27.028v.003C135.207 60.409 58.442 138.199 48.989 235.687h-.004c-.072.748-.131 1.497-.195 2.246a205.782 205.782 0 0 0-.353 4.743c-.026.418-.056.835-.08 1.254a220.466 220.466 0 0 0-.163 3.371l-.032.843A211.116 211.116 0 0 0 48 256c0 114.863 93.137 208 208 208 2.627 0 5.239-.065 7.843-.162.293-.011.586-.021.878-.033 1.11-.046 2.219-.098 3.324-.16.454-.025.906-.058 1.359-.086 1.604-.103 3.201-.222 4.795-.36.704-.061 1.41-.115 2.113-.184v-.004c97.494-9.452 175.279-86.216 186.326-183.229h.004c.016-.137.028-.275.044-.413zM446.665 256c0 2.568-.066 5.122-.167 7.666a207.715 207.715 0 0 1-30.614-3.664l6.11-19.056-15.232-4.884-6.488 20.235a207.82 207.82 0 0 1-22.442-7.638 207.424 207.424 0 0 1-14.625-6.604l11.518-17.003-13.247-8.974-12.359 18.246c-12.241-7.35-23.703-15.977-34.305-25.812l14.73-14.73-11.313-11.313-14.73 14.73c-9.555-10.297-17.964-21.408-25.175-33.254l18.487-12.522-8.972-13.246-17.324 11.735a207.819 207.819 0 0 1-7.174-15.74 208.075 208.075 0 0 1-7.327-21.352l20.812-6.673-4.885-15.234-19.711 6.32a207.819 207.819 0 0 1-3.896-31.729c2.544-.101 5.097-.167 7.665-.167C361.132 65.335 446.665 150.869 446.665 256zm-381.328 0c0-1.317.023-2.629.05-3.939a207.701 207.701 0 0 1 26.891 3.409l-7.115 22.191 15.235 4.885 7.5-23.391a208.056 208.056 0 0 1 22.738 7.721 207.513 207.513 0 0 1 15.197 6.896l-13.405 19.79 13.246 8.973 14.219-20.992c12.038 7.279 23.32 15.793 33.765 25.483l-16.853 16.853 11.313 11.314 16.854-16.854c9.968 10.744 18.7 22.369 26.114 34.796l-20.753 14.058 8.972 13.246 19.473-13.19a208.258 208.258 0 0 1 14.363 37.894l-22.832 7.32 4.884 15.233 21.531-6.903a207.698 207.698 0 0 1 3.215 25.822c-1.311.026-2.622.05-3.939.05C150.87 446.664 65.336 361.13 65.337 256zm210.556 189.629a225.091 225.091 0 0 0-3.859-29.746l24.1-7.727-4.884-15.232-22.896 7.341a222.73 222.73 0 0 0-16.234-42.054l20.172-13.664-8.973-13.246-18.988 12.862a223.836 223.836 0 0 0-28.04-37.145l17.081-17.081-11.313-11.313-17.082 17.081a223.959 223.959 0 0 0-36.108-27.414l12.696-18.743-13.246-8.972-13.446 19.85a222.682 222.682 0 0 0-42.094-16.494l7.158-22.325-15.235-4.885-7.52 23.452a224.982 224.982 0 0 0-30.81-4.067C75.54 148.07 144.864 77.653 232.395 66.796a225.012 225.012 0 0 0 4.543 35.339l-25.935 8.316 4.885 15.234 24.903-7.985a222.673 222.673 0 0 0 16.386 41.246l-22.322 15.121 8.973 13.246 21.236-14.385c7.688 12.528 16.735 24.455 27.116 35.59l-19.204 19.204 11.313 11.314 19.204-19.205a223.968 223.968 0 0 0 36.647 27.745l-14.555 21.486 13.248 8.974 15.328-22.628a222.64 222.64 0 0 0 41.229 16.118l-8.168 25.477 15.232 4.884 8.525-26.59a225.095 225.095 0 0 0 34.224 4.31c-10.856 87.53-81.273 156.853-169.31 166.022z"/></svg>