<svg id="Layer_1" xmlns="http://www.w3.org/2000/svg" width="512" height="512" viewBox="0 0 512 512"><path class="st0" d="M256 32C132.3 32 32 132.3 32 256s100.3 224 224 224 224-100.3 224-224S379.7 32 256 32zm0 40c4.4 0 8 3.6 8 8s-3.6 8-8 8-8-3.6-8-8 3.6-8 8-8zM80 264c-4.4 0-8-3.6-8-8s3.6-8 8-8 8 3.6 8 8-3.6 8-8 8zm27.6 86.9c-3.8 2.2-8.7.9-10.9-2.9-2.2-3.8-.9-8.7 2.9-10.9 3.8-2.2 8.7-.9 10.9 2.9 2.2 3.8.9 8.7-2.9 10.9zm2.9-178.9c-2.2 3.8-7.1 5.1-10.9 2.9-3.8-2.2-5.1-7.1-2.9-10.9s7.1-5.1 10.9-2.9c3.8 2.2 5.1 7.1 2.9 10.9zM164 96.7c3.8-2.2 8.7-.9 10.9 2.9 2.2 3.8.9 8.7-2.9 10.9-3.8 2.2-8.7.9-10.9-2.9-2.2-3.8-.9-8.7 2.9-10.9zm10.9 315.7c-2.2 3.8-7.1 5.1-10.9 2.9-3.8-2.2-5.1-7.1-2.9-10.9 2.2-3.8 7.1-5.1 10.9-2.9s5.1 7.1 2.9 10.9zM256 440c-4.4 0-8-3.6-8-8s3.6-8 8-8 8 3.6 8 8-3.6 8-8 8zm8-170.1V392c0 4.4-3.6 8-8 8s-8-3.6-8-8V269.8c-2.4-1.4-4.4-3.3-5.9-5.8-3-5.2-2.7-11.5.2-16.3l-37.6-62.9c-2.3-3.8-1-8.7 2.7-11 3.8-2.3 8.7-1 11 2.7l38 63.4c5.4.1 10.6 3 13.4 8 4.5 7.8 1.9 17.5-5.8 22zm84 145.4c-3.8 2.2-8.7.9-10.9-2.9-2.2-3.8-.9-8.7 2.9-10.9 3.8-2.2 8.7-.9 10.9 2.9 2.2 3.8.9 8.7-2.9 10.9zm2.9-307.7c-2.2 3.8-7.1 5.1-10.9 2.9-3.8-2.2-5.1-7.1-2.9-10.9 2.2-3.8 7.1-5.1 10.9-2.9 3.8 2.2 5.1 7.1 2.9 10.9zM415.3 348c-2.2 3.8-7.1 5.1-10.9 2.9-3.8-2.2-5.1-7.1-2.9-10.9 2.2-3.8 7.1-5.1 10.9-2.9 3.8 2.2 5.2 7.1 2.9 10.9zm-2.9-173.1c-3.8 2.2-8.7.9-10.9-2.9-2.2-3.8-.9-8.7 2.9-10.9 3.8-2.2 8.7-.9 10.9 2.9 2.3 3.8.9 8.7-2.9 10.9zM432 264c-4.4 0-8-3.6-8-8s3.6-8 8-8 8 3.6 8 8-3.6 8-8 8z"/></svg>