<svg xmlns="http://www.w3.org/2000/svg" width="512" height="512" viewBox="0 0 512 512"><path d="M391.016 382.994l-.15-.124L323.7 272H188.554l-66.549 110.855-.166.042-.177.302c-5.461 8.334-8.319 18.773-8.319 24.717 0 12.945 4.481 16.848 5.954 18.088 4.46 3.76 12.667 5.996 23.731 5.996H368.96c10.278 0 18.232-2.521 23.007-6.85 4.205-3.814 6.454-9.956 6.683-17.795.172-5.904-2.093-15.968-7.476-24.18l-.158-.181z"/><path d="M436.912 370.441L320 175V48h16V32H176v16h16v127L76.125 370.441c-8.41 15.827-12.509 31.373-12.097 45.559 1.061 36.511 28.701 64 65.065 64h255.888c36.292 0 62.132-27.598 62.993-64 .338-14.244-2.607-29.651-11.062-45.559zM208 64h48v16h-48V64zm0 48h32v16h-32v-16zm0 48h48v16h-48v-16zm-16.739 48H240v16h-58.179l9.44-16zM414.64 408.041C413.934 432.289 398.763 448 368.96 448H143.027c-29.862 0-45.682-12.25-45.682-39.834 0-9.455 4.029-23.008 10.937-33.55L179.49 256h153.228l71.836 118.717c6.943 10.595 10.362 23.836 10.086 33.324z"/></svg>