<svg xmlns="http://www.w3.org/2000/svg" width="512" height="512" viewBox="0 0 512 512"><path d="M288 80.826c45.293 3.705 87.354 23.024 119.809 55.494C444.044 172.57 464 220.744 464 272.043c0 25.924-5.08 51.042-15.099 74.703-9.68 22.859-23.54 43.384-41.194 61.024-17.654 17.639-38.204 31.481-61.08 41.151-23.673 10.01-48.823 15.081-74.752 15.081-41.193 0-80.47-12.847-113.584-37.146a193.027 193.027 0 0 1-41.633-41.692 191.38 191.38 0 0 1-21.041-36.634l180.259-45.008L288 300.496V81m-16-17v224L74.245 337.376C101.653 420.221 179.841 480 271.875 480 386.75 480 480 386.875 480 272S387 64 272 64z"/><path d="M240 48.181v214.943l-180.342 45.73c-9.117-23.568-11.197-56.973-11.158-69.496v-.071c0-47.311 16.465-93.746 45.173-127.398 16.735-19.618 37.502-34.981 61.721-45.663C180.099 55.331 208.519 49.274 240 48.181M256 32h-5.5C90.5 32 32 148.25 32 239.287c0 0 .25 56.666 18.91 88.291L256 275.573V32z"/></svg>