<svg xmlns="http://www.w3.org/2000/svg" width="512" height="512" viewBox="0 0 512 512"><path d="M359 233.62l-.106-.039c-.136-.138-.306-.443-.444-.579L279.551 154h-.004c-5.848-6-14.23-10.168-23.547-10.168-11.842 0-22.174 6.168-27.708 16.168h-.007l-18.318 29.249 32.617 39.85c2.947 3.772 3.305 7.895 1.414 9.785l-.114.114c-2.296 2.296-5.894 1.535-9.785-1.414l-35.967-29.439-83.671 133.592 19.123 23.362c2.947 3.772 3.305 7.895 1.414 9.785l-.114.114c-2.296 2.296-5.894 1.535-9.785-1.414l-20.22-16.55A584921.58 584921.58 0 0 1 69 414.315v.003c-3 5.066-5 11.144-5 17.682 0 17.674 14.244 32 31.918 32 7.842 0 14.383-3.398 20.628-7.508l114.842-84.195-28.971-35.395c-2.947-3.772-3.305-7.895-1.414-9.785l.114-.114c2.296-2.296 5.894-1.534 9.785 1.415l37.963 31.215A76574.838 76574.838 0 0 1 355.035 282h.005c7.859-6 13.024-15.319 13.024-25.857 0-8.713-3.064-16.75-9.064-22.521v-.002zm89-94.839l-16.486-27.694-66.23 38.212 49.231-85.213L386.896 48l-69.999 121.084 28.588 28.588z"/></svg>