<svg id="Layer_1" xmlns="http://www.w3.org/2000/svg" width="512" height="512" viewBox="0 0 512 512"><path class="st0" d="M244 175.8c14.5 0 28.1 4.8 39.3 13.9 10.9 8.9 18.6 21.3 21.7 34.9l3.1 14 14.2-1.8c2.1-.3 4.1-.4 6.1-.4 26.9 0 48.8 22.1 48.8 49.2s-21.9 49.2-48.8 49.2H170.7c-9.5 0-18.5-3.9-25.4-10.8-6.8-7-10.6-16.2-10.6-25.9 0-18.6 14.5-33.8 33.2-36.9 1.6-.3 8.7-1.2 14.2-1.7 0 0-.5-5.3-.6-9.6-.1-4.3-.1-9.4-.1-11.5.1-34.4 28.1-62.6 62.6-62.6m0-15.8c-43 0-78.3 35.2-78.3 78.5 0 2.6.1 5.2.4 7.8-26.4 2.3-47.1 25.5-47.1 52.6 0 28.6 23.2 53.1 51.7 53.1h157.7c35.7 0 64.6-29.9 64.6-65.7S364.1 221 328.4 221c-2.7 0-5.4 0-8 .3-7.9-35-39.4-61.3-76.4-61.3z"/></svg>