<svg xmlns="http://www.w3.org/2000/svg" width="512" height="512" viewBox="0 0 512 512"><path d="M192.011 149.661l-34.043 34.041 256.097 256.096L448 405.757 192.011 149.661zm20.585 66.041l11.415-11.414 201.468 201.469-11.414 11.414-201.469-201.469zM184 64h16v40h-16zm0 204h16v40h-16zm96-92h40v16h-40zm-216 0h40v16H64zm75.675-53.442l-11.313 11.314-28.284-28.284 11.313-11.314zm-28.286 155.57l-11.312-11.312 28.284-28.284 11.312 11.312zm144.252-144.251l-11.313-11.313L272.61 94.28l11.313 11.313z"/></svg>