<svg xmlns="http://www.w3.org/2000/svg" width="512" height="512" viewBox="0 0 512 512"><path d="M356 320c-9.7 13.3-29.9 28.5-38.1 33.1s-16.9 8.3-26 10.8c-9 2.5-18.6 3.9-28.4 3.9-14.9 0-29.4-2.4-43-7.2-13.3-4.7-25.2-11.8-35.1-21-9.9-9-20.3-24.2-26.5-38.5-5.3-12.4-7.6-25.8-7.6-46.5 0-14.7 3.4-30.9 9.2-44.7 5.6-13.2 13.5-24.9 23.3-34.6 9.7-9.6 21.6-17.5 35.3-23.3 12.3-5.1 26.7-7.7 44.4-7.7 13.9 0 27.2 2.2 39.4 6.6 11.9 4.3 22.3 10.4 30.9 18.3 8 7.3 12.9 16.1 18.2 28.1 4.6 10.2 6.3 19.2 6.3 33.3 0 11.5-2 22.4-6 32.4-4 9.8-7 15.8-13 23.3-6.3 7.6-9.8 11.8-16.5 15.6-7.8 4.6-13.7 6.7-18.5 6.7-3.8 0-5-.9-5.1-1-.6-.5-1.1-1.2-1.4-2.8-.3-2.2 0-5.2.9-8.6 1-3.9 2.4-7.7 4.6-12.9l39-104.3h-25.6l-4.5 12c-3.5-4.1-7.7-7.5-12.4-10.2-11.1-6.4-20.4-9-32.3-9-13.8 0-26.7 3.6-38.2 10.7-11.2 6.9-20.8 15.8-28.5 26.5-7.6 10.5-9.5 16.1-13 26.5l-.6 1.8c-4.2 12.4-6.3 24.7-6.3 36.4 0 7.9 1.5 15.5 4.3 22.6 2.8 7.2 6.7 13.4 11.6 18.5 4.8 5.2 10.7 9.4 17.7 12.6 6.8 3.1 14.3 4.8 22.4 4.8 8.9 0 17.1-1.5 26.7-4.8 5.3-1.8 9.9-4.5 14.4-8.3 1 1.7 2.2 3.1 3.7 4.5 5.6 5.6 13.1 8.5 22.1 8.5 8.9 0 18.6-3 30.2-9.5 10.3-5.8 16.3-12.5 23.7-21.4 8.4-10 12.5-18.6 17-29.9 5.1-12.5 7.6-26.2 7.6-40.6 0-18.1-2.4-30.4-8.7-44-6.6-14.4-13.3-25.9-24.3-35.6-10.9-9.7-23.9-17.2-38.7-22.4-14.6-5.1-30.3-7.7-46.7-7.7-20 0-37.2 3-52.2 9.1-16.3 6.6-30.8 15.9-43.1 27.6-12.3 11.8-22.1 26-29.1 42-7.3 16.5-11.4 36.5-11.4 55.1 0 25 3.1 42.4 10.4 58.4 8.1 17.5 21.2 35.5 33.4 45.9 12.7 11.1 27.3 19.2 43.4 24.3 15.9 5.1 32.3 7.7 48.6 7.7 11.2 0 22.7-1.6 34.1-4.6 11.6-3.2 22.4-7.6 32.1-13.1 9.9-5.5 19.5-12.4 28.2-20.6 8.8-8.2 19.4-20.9 22.9-27.1 1.2-2.3 2.2-4.2 2.8-5.6h-28zm-84.1-29.4c-4.4 5.5-7.2 8.9-10.6 11.2-3.8 2.6-6.8 4.2-10.7 5.2h-.1c-3.9 1-8.1 1.5-12.4 1.5-5 0-9.4-.9-13.4-2.7-4.1-1.7-7.5-4.1-10.5-7.3-2.9-3.1-5.4-6.8-7.1-11.1-1.7-4.3-2.5-9-2.5-14.1 0-8.7 1.7-18.3 5-28.2l1.1-3.3c2.6-8.1 4-10.6 8.9-18.6 4.5-7.4 11.5-14.2 21.2-20.7 7.7-5.1 16.2-7.8 25.6-7.8 3.8 0 7.8.5 12 1.4 3 .7 4.6 1.6 7.6 3.3l.2.1c.4.2.8.4 1.3.7l.3.2c3.4 1.9 6.4 4.5 9 7.6 2 2.4 3.7 5.5 5 9.4L282 272.2c-3 7.4-6.4 13.6-10.1 18.4z"/></svg>