<svg id="Layer_1" xmlns="http://www.w3.org/2000/svg" width="512" height="512" viewBox="0 0 512 512"><path class="st0" d="M312 272h-40l16-48h-72l-15 80h52.3L224 400z"/><path class="st0" d="M328.4 172.7c-2.7 0-5.4 0-8 .3-7.9-35-39.1-61.4-76.4-61.4-43.3 0-78.3 35.2-78.3 78.5 0 2.6.1 5.2.4 7.8-26.4 2.3-47.1 25.7-47.1 52.8 0 28.6 23.2 53.3 51.7 53.3H182v-17h-11.3c-9.5 0-18.5-4.1-25.4-11-6.8-7-10.6-16.3-10.6-26 0-18.6 14.5-33.8 33.2-36.9 1.6-.3 8.8-1.3 14.2-1.8 0 0-.5-5.3-.6-9.6-.1-4.3-.1-9.4-.1-11.5 0-34.6 28.1-62.7 62.6-62.7 14.5 0 28.1 4.8 39.3 13.9 10.9 8.9 18.6 21.3 21.7 34.9l3.1 14 14.2-1.8c2.1-.3 4.1-.4 6.1-.4 26.9 0 48.8 22.3 48.8 49.4 0 27.1-21.9 49.4-48.8 49.4H320v17h8.4c35.7 0 64.6-30.1 64.6-65.9 0-35.6-28.9-65.3-64.6-65.3z"/></svg>