<svg xmlns="http://www.w3.org/2000/svg" width="512" height="512" viewBox="0 0 512 512"><path d="M489.373 256L448 297.373 405.627 256l-10.814 10.813L448 320l52.687-52.687z"/><path d="M459.994 255.509c-.002-.577.013-1.157.007-1.733l-.029-.003C458.771 142.311 367.742 52 256 52c-73.59 0-141.753 39.878-177.888 104.071l13.943 7.848C125.359 104.754 188.18 68 256 68c103.273 0 187.355 83.708 187.985 186.836.038 6.882-.281 13.83-1.017 20.831l15.912 1.674A205.256 205.256 0 0 0 459.991 256H460c0-.164-.006-.327-.006-.491zm-40.05 92.572C386.641 407.246 323.82 444 256 444c-103.475 0-187.688-84.032-187.993-187.437-.015-6.686.31-13.434 1.024-20.23l-15.912-1.674A204.972 204.972 0 0 0 52.011 256H52c0 .472.015.939.018 1.41.006.975-.006 1.952.015 2.924l.022-.003C54.369 370.825 144.962 460 256 460c73.59 0 141.753-39.878 177.888-104.071l-13.944-7.848z"/><path d="M64 192l-52.687 52.687L22.627 256 64 214.627 105.373 256l11.314-11.313z"/></svg>