<svg xmlns="http://www.w3.org/2000/svg" width="512" height="512" viewBox="0 0 512 512"><path d="M464 256c0-114.863-93.13-208-208-208-114.863 0-208 93.136-208 208 0 114.863 93.137 208 208 208a212.3 212.3 0 0 0 7.587-.152 202.801 202.801 0 0 0 4.258-.191c.85-.047 1.698-.104 2.547-.161.639-.044 1.279-.08 1.917-.13 1.354-.104 2.705-.221 4.055-.352v-.009c97.47-9.474 175.229-86.229 186.274-183.223l.057-.001a208.679 208.679 0 0 0 1.196-16.05l-.049.001c.095-2.566.158-5.141.158-7.732zm-17.335 0c0 2.568-.066 5.121-.167 7.664-23.639-1.076-46.677-6.106-68.616-15.005-25.791-10.458-48.938-25.831-68.797-45.691-19.86-19.86-35.233-43.007-45.692-68.797-8.903-21.956-13.935-45.014-15.006-68.67 2.527-.1 5.063-.165 7.614-.165C361.13 65.335 446.665 150.869 446.665 256zm-381.328 0c0-1.318.023-2.631.05-3.942 22.476 1.379 44.388 6.337 65.3 14.817 25.791 10.458 48.938 25.831 68.798 45.691 19.86 19.859 35.232 43.007 45.691 68.798 8.474 20.896 13.43 42.792 14.814 65.249a196.04 196.04 0 0 1-3.99.051C150.87 446.664 65.336 361.13 65.337 256zm210.606 189.623c-3.273-52.566-24.974-104.198-65.145-144.369-40.186-40.186-91.84-61.889-144.427-65.15 9.172-88.053 78.52-158.478 166.074-169.313 2.595 53.64 24.36 106.525 65.326 147.49 40.949 40.952 93.811 62.713 147.433 65.322-10.853 87.515-81.247 156.829-169.261 166.02z"/></svg>