<svg id="Layer_1" xmlns="http://www.w3.org/2000/svg" width="512" height="512" viewBox="0 0 512 512"><path class="st0" d="M379.9 317l-28.7-16.3c6.1-5.8 13-9.7 20.7-12.3 4.3-1.4 6.5-5.9 5.1-10.1-1.4-4.2-6-6.5-10.3-5.1-11.6 3.8-22.2 11-30.1 19.2L272.3 256l64.2-36.4c8.4 9.1 18.6 15.4 30.2 19.2 4.3 1.4 8.9-.8 10.3-5 1.4-4.2-.8-8.7-5.1-10.1-7.8-2.6-14.8-6.5-20.9-12.3l28.8-16.3c3.9-2.2 5.2-7.1 3-10.9s-7.2-5.1-11.1-2.9l-28.7 16c-2-8.1-2.1-15.9-.5-23.8.9-4.3-2-8.5-6.4-9.4-4.4-.9-8.7 1.9-9.6 6.2-2.4 11.8-1.4 24.4 1.8 35.2L264 242.2v-73c11-2.7 22.4-8.1 31.5-16.1 3.3-2.9 3.6-8 .7-11.3-2.9-3.3-7.9-3.6-11.3-.7-6 5.3-12.9 9.2-20.9 11.5V120c0-4.4-3.6-8-8-8s-8 3.6-8 8v32.7c-8-2.3-14.8-6.2-20.9-11.6-3.3-2.9-8.4-2.6-11.3.7-2.9 3.3-2.6 8.4.7 11.3 9.1 8 19.5 13.5 31.5 16.1v73l-64.5-36.6c3.2-10.9 4.2-23.5 1.9-35.2-.9-4.3-5.2-7.1-9.6-6.2-4.4.9-7.2 5-6.4 9.4 1.6 7.9 1.6 15.7-.5 23.8L140.3 181c-3.9-2.2-8.9-.9-11.1 2.9-2.2 3.8-.9 8.7 3 10.9l28.8 16.3c-6.1 5.8-13 9.7-20.8 12.3-4.3 1.4-6.5 6-5.1 10.1 1.4 4.2 6.1 6.4 10.3 5 11.6-3.9 21.8-10.1 30.2-19.2l64.3 36.5-64.4 36.5c-7.9-8.2-18.6-15.3-30.1-19.2-4.3-1.4-8.8.9-10.3 5.1-1.4 4.2.8 8.7 5.1 10.1 7.7 2.6 14.6 6.5 20.7 12.3l-28.7 16.3c-3.9 2.2-5.2 7.1-3 10.9s7.2 5.1 11.1 2.9l28.8-16.3c2.1 8.1 2.1 15.9.4 23.9-.9 4.3 2 8.5 6.4 9.4 4.4.9 8.7-1.9 9.6-6.3 2.4-11.8 1.9-23.6-1.9-35.3l64.5-36.6v73.1c-12 2.6-22.4 8.1-31.5 16.1-3.3 2.9-3.6 8-.7 11.3 2.9 3.3 7.9 3.6 11.3.7 6.1-5.4 12.9-9.3 20.9-11.6V392c0 4.4 3.6 8 8 8s8-3.6 8-8v-32.6c8 2.3 14.8 6.2 20.9 11.5 3.3 2.9 8.3 2.6 11.3-.7 2.9-3.3 2.6-8.4-.7-11.3-9-7.9-20.4-13.4-31.4-16.1v-73.1l64.4 36.5c-3.8 11.7-4.2 23.5-1.8 35.3.9 4.3 5.2 7.1 9.6 6.3 4.4-.9 7.3-5.1 6.4-9.4-1.6-8-1.6-15.8.4-23.9l28.8 16.3c3.9 2.2 8.9.9 11.1-2.9 2.1-3.8.7-8.7-3.2-10.9z"/></svg>