<svg xmlns="http://www.w3.org/2000/svg" width="512" height="512" viewBox="0 0 512 512"><path d="M368 170.085c0-21.022-.973-88.554-19.308-125.013C344.244 36.228 336.25 32 316.999 32H195.001c-19.25 0-27.246 4.197-31.693 13.041C144.973 81.5 144 149.25 144 170.272c0 98 32 100.353 32 180.853 0 39.5-16 71.402-16 99.402 0 27 9 29.473 32 29.473h128c23 0 32-2.535 32-29.535 0-28-16-59.715-16-99.215 0-80.5 32-83.165 32-181.165zM177.602 51.983c.778-1.546 1.339-1.763 2.53-2.295 1.977-.884 6.161-1.688 14.869-1.688h121.998c8.708 0 12.893.803 14.869 1.687 1.19.532 1.752.872 2.53 2.418 8.029 15.967 13.601 42.611 16.105 75.896H161.496c2.505-33.348 8.076-60.05 16.106-76.018zm157.029 410.653C332.76 463.377 327.844 464 320 464H192c-7.844 0-12.761-.623-14.639-1.359-.394-.93-1.361-4.166-1.361-12.27 0-10.856 3.016-23.16 6.508-37.334 4.449-18.059 9.492-38.557 9.492-61.943 0-40.997-7.993-63.802-15.724-85.842C168.274 242.438 160 218.838 160 170.155c0-9.025.191-17.756.558-26.155h190.886c.365 8.376.557 17.083.557 26.085 0 48.688-8.276 72.302-16.28 95.169-7.728 22.079-15.72 44.895-15.72 85.887 0 23.39 5.043 43.822 9.493 61.856 3.491 14.15 6.507 26.368 6.507 37.222-.001 8.136-.977 11.494-1.37 12.417z"/></svg>