<svg xmlns="http://www.w3.org/2000/svg" width="512" height="512" viewBox="0 0 512 512"><path d="M194.822 240H160v-34.762c0-2.817-2.604-5.238-5.303-5.238h-22.145c-2.698 0-4.552 2.372-4.552 5.178V240H92.533c-2.615 0-4.533 2.143-4.533 4.771v21.427c0 2.698 2.031 5.803 4.861 5.803H128v35.467c0 2.615 2.143 4.533 4.771 4.533h21.427c2.698 0 5.803-2.031 5.803-4.861V272h34.762c2.817 0 5.238-2.604 5.238-5.303v-22.145c-.001-2.698-2.373-4.552-5.179-4.552zm167.492 39.063c-10.736 0-19.451 8.515-19.451 19.153 0 10.555 8.715 19.084 19.451 19.084 10.783 0 19.498-8.529 19.498-19.084 0-10.638-8.714-19.153-19.498-19.153zm-42.548-41.898c-10.736 0-19.451 8.603-19.451 19.168 0 10.566 8.715 19.153 19.451 19.153 10.783 0 19.498-8.587 19.498-19.153 0-10.565-8.715-19.168-19.498-19.168zm85.096 0c-10.729 0-19.442 8.603-19.442 19.168 0 10.566 8.714 19.153 19.442 19.153 10.737 0 19.452-8.587 19.452-19.153 0-10.565-8.714-19.168-19.452-19.168zm-42.548-41.864c-10.736 0-19.451 8.602-19.451 19.169 0 10.566 8.715 19.146 19.451 19.146 10.783 0 19.498-8.579 19.498-19.146 0-10.568-8.714-19.169-19.498-19.169z"/><path d="M369.269 162c25.838 0 49.704 9.314 67.204 26.229C454.225 205.386 464 229.247 464 255.418c0 26.303-9.806 50.405-27.611 67.869-17.563 17.226-41.4 26.713-67.12 26.713h-226.53c-25.712 0-49.548-9.487-67.117-26.715C57.81 305.818 48 281.717 48 255.418c0-26.167 9.78-50.028 27.539-67.188 17.504-16.915 41.37-26.23 67.2-26.23h226.53m0-16h-226.53C81.541 146 32 191.458 32 255.418 32 319.419 81.541 366 142.739 366h226.529C430.49 366 480 319.419 480 255.418 480 191.458 430.49 146 369.269 146z"/></svg>