<svg xmlns="http://www.w3.org/2000/svg" width="512" height="512" viewBox="0 0 512 512"><path d="M366.194 212.122A112.581 112.581 0 0 0 368.001 192c0-61.856-50.146-112-112.001-112-61.857 0-112.001 50.144-112.001 112 0 6.87.622 13.594 1.806 20.122C98.618 225.302 64 268.606 64 320c0 61.855 50.144 112 112 112 31.341 0 59.67-12.879 80-33.627C276.328 419.121 304.658 432 335.999 432 397.854 432 448 381.855 448 320c0-51.394-34.619-94.697-81.806-107.878zM255.998 395.373c-.484.495-.979.982-1.475 1.469a112.83 112.83 0 0 1-8.951-10.759c-13.561-18.525-21.574-41.366-21.574-66.083 0-6.869.622-13.594 1.807-20.121-35.749-9.986-64.281-37.26-76.014-72.243a111.193 111.193 0 0 1-3.822-14.659c.942-.29 1.882-.589 2.835-.854-.046-.252-.085-.507-.129-.759a111.516 111.516 0 0 1 12.82-2.43c4.748-.615 9.589-.934 14.505-.934 31.341 0 59.67 12.878 80 33.626C276.328 220.878 304.658 208 335.999 208c4.916 0 9.757.319 14.506.934 4.355.563 8.633 1.38 12.816 2.429-.043.253-.082.507-.129.76.955.267 1.895.564 2.838.855a111.138 111.138 0 0 1-3.822 14.658c-11.732 34.983-40.266 62.257-76.013 72.242A112.59 112.59 0 0 1 288.002 320c0 24.717-8.014 47.558-21.574 66.083a112.74 112.74 0 0 1-8.953 10.76c-.496-.487-.991-.974-1.477-1.47z"/><path d="M270.506 303.067a113.082 113.082 0 0 1-29.012 0A96.24 96.24 0 0 0 239.998 320c0 19.58 5.898 37.806 16.002 53.005 10.104-15.199 16.002-33.425 16.002-53.005 0-5.776-.514-11.435-1.496-16.933zm75.807-78.512a96.564 96.564 0 0 0-10.314-.556c-27.354 0-52.069 11.5-69.571 29.917a111.65 111.65 0 0 1 15.781 30.448c29.755-8.455 53.665-30.936 64.104-59.809zm-79.999 62.89A95.74 95.74 0 0 0 256 266.994a95.74 95.74 0 0 0-10.314 20.451c3.389.364 6.83.556 10.314.556s6.925-.191 10.314-.556zM176 223.999a96.29 96.29 0 0 0-10.314.556c10.439 28.873 34.349 51.354 64.106 59.81a111.594 111.594 0 0 1 15.781-30.448c-17.503-18.418-42.22-29.918-69.573-29.918z"/></svg>