<svg xmlns="http://www.w3.org/2000/svg" width="512" height="512" viewBox="0 0 512 512"><path d="M399.3 232.8c0-1.2.2-2.4.2-3.6 0-64.3-52.8-117.2-116.8-117.2-46.1 0-85.8 27.9-104.4 67-8.1-4.1-17.1-6.4-26.8-6.4-29.6 0-54.1 23.7-58.9 52C57.4 236.8 32 268.8 32 308.4c0 49.8 40.1 91.6 89.6 91.6H398c45 0 82-38.9 82-84.3 0-45.6-35.4-82.8-80.7-82.9zm-1.8 150.8l-3.2.4H122.4c-40.9 0-74.2-34.9-74.2-76.1 0-31.9 20.2-58.4 50.2-68.8l8.4-3 1.5-8.8c3.6-21.6 22.1-39.3 43.9-39.3 6.9 0 13.7 1.6 19.9 4.8l13.5 6.8 6.5-13.7c16.6-34.9 52.1-58.2 90.4-58.2 55.3 0 100.9 44.1 100.9 99.7 0 13.3-.2 20.3-.2 20.3l15.2.1c36.7.5 65.6 30.5 65.6 67.4 0 36.9-29.8 68.2-66.5 68.4z"/></svg>