<svg xmlns="http://www.w3.org/2000/svg" width="512" height="512" viewBox="0 0 512 512"><circle cx="256" cy="79.838" r="48"/><path d="M424 144H88c-13.255 0-24 10.745-24 24s10.745 24 24 24h98.451c5.579 1 13.197 3.837 17.216 14.252 4.651 12.056 2.37 33.606-.539 51.727l-3.775 21.395-.058.311-.004.02-30.375 172.268c-2.303 13.053 6.414 25.5 19.467 27.803 13.055 2.301 25.333-6.416 27.634-19.471L237 340.348v.167S243.25 308 255.452 308h1.096C269 308 275 340.515 275 340.515v-.083l20.983 119.913c2.301 13.055 14.663 21.749 27.718 19.448 13.053-2.303 21.728-14.762 19.425-27.814L312.73 279.703c-.002-.008-.013-.02-.015-.027-.019-.104-.044-.217-.063-.322l-3.777-21.414c-2.909-18.121-5.191-39.631-.541-51.688C312.354 195.838 319.97 193 325.549 192H424c13.255 0 24-10.745 24-24s-10.745-24-24-24z"/></svg>