<svg xmlns="http://www.w3.org/2000/svg" width="512" height="512" viewBox="0 0 512 512"><path d="M256 64C132.288 64 32 164.226 32 287.938c0 56.975 21.283 108.97 56.316 148.5 3.551 4.006 7.241 7.82 11.066 11.562 3.059-3.49 6.232-6.834 9.539-10.141.48-.48.972-.947 1.456-1.422 18.78-18.426 40.521-32.949 64.664-43.161 25.633-10.842 52.871-16.339 80.958-16.339s55.325 5.497 80.958 16.339c24.144 10.212 45.884 24.735 64.664 43.161.484.475.976.941 1.456 1.422 3.307 3.307 6.48 6.65 9.539 10.141 3.825-3.742 7.516-7.557 11.066-11.562 35.033-39.53 56.316-91.525 56.316-148.5C480 164.226 379.712 64 256 64zm191.661 305.177c-8.663 20.481-20.429 39.092-35.044 55.776-40.39-39.51-95.653-63.945-156.617-63.945s-116.228 24.33-156.617 63.84c-14.615-16.685-26.381-35.172-35.044-55.653a206.047 206.047 0 0 1-16.173-72.694H79.5v-16H48.166c.945-25 6.363-50.048 16.173-73.239 9.372-22.157 22.376-42.431 38.692-60.11l26.932 26.893 5.496-5.538 5.277-5.264-.02-.027.547-.552-26.951-26.984c17.862-16.647 38.004-29.894 60.479-39.4a206.128 206.128 0 0 1 72.708-16.174V117.5h16V80.104c26 .945 50.017 6.363 73.208 16.173 22.437 9.49 42.921 22.706 60.762 39.312l-26.975 27.069.577.547-.004.019 5.285 5.246 5.5 5.503 27.026-27.057c16.356 17.703 29.392 38.148 38.78 60.345 9.81 23.191 15.229 48.239 16.174 73.239H431.5v16h32.334a205.96 205.96 0 0 1-16.173 72.677z"/><path d="M368.479 174.545l-85.484 73.727a47.72 47.72 0 0 0-26.994-8.334c-26.467 0-48 21.533-48 48 0 10.479 3.385 20.178 9.106 28.08l-11.948 11.948 11.312 11.313 12.033-12.033c7.795 5.469 17.273 8.691 27.496 8.691 26.467 0 48-21.533 48-48 0-10.387-3.327-20.005-8.956-27.868l74.849-84.11-1.414-1.414zM256 319.938c-17.673 0-32-14.326-32-32 0-17.673 14.327-32 32-32s32 14.327 32 32c0 17.673-14.327 32-32 32z"/></svg>