<svg xmlns="http://www.w3.org/2000/svg" width="512" height="512" viewBox="0 0 512 512"><path d="M379.769 153.431c-29.777 55.586-17.604 99.504-6.645 139.039C378.717 312.648 384 331.708 384 351.889c0 15.897-2.956 30.873-8.785 44.51-5.727 13.396-14.104 25.212-24.898 35.12C327.169 452.768 294.555 464 256 464s-71.169-11.232-94.316-32.481c-10.795-9.908-19.172-21.725-24.898-35.12-5.829-13.637-8.785-28.612-8.785-44.51 0-31.65 6.92-55.999 21.775-76.626 13.061-18.134 32.646-34.094 63.505-51.749l6.506-3.725c20.197-11.57 27.001-15.467 43.976-23.588 31.845-15.234 66.513-28.387 103.041-39.094a760.861 760.861 0 0 1 12.965-3.676M416 128a816.389 816.389 0 0 0-53.697 13.753c-40.457 11.858-75.509 25.693-105.445 40.015-19.271 9.219-26.236 13.393-51.522 27.859C147.001 243 112 278.926 112 351.889S167.635 480 256 480s144-55.148 144-128.111S338.999 224 416 128zm-282.484-4.853c21.432 6.955 47.724 16.977 69.799 29.846 6.385 3.723 12.092 7.493 17.092 11.291a595.825 595.825 0 0 0-16.138 8.833 570.11 570.11 0 0 0-21.243 12.679c-10.484 6.574-20.435 13.308-29.789 20.156-.6-25.918-5.682-54.802-19.721-82.805M96 96c41.475 47.079 44.624 103.891 39.382 144.741 12.772-11.274 31.177-25.734 56.144-41.389a548.613 548.613 0 0 1 20.645-12.322c11.578-6.575 23.538-12.822 35.834-18.765-9.113-10.898-22.07-20.606-36.631-29.095C162.631 110.756 96 96 96 96zm248.629-15.303c5.309 7.227 12.393 17.661 17.66 27.726-29.863 8.433-65.994 21.145-94.967 33.476-5.963-6.235-12.982-12.294-21.006-18.135 17.437-15.757 38.773-27.668 63.652-35.506 14.55-4.583 27.048-6.646 34.661-7.561M352 64s-78.623 2.321-130.681 62.469c16.629 9.903 29.735 20.503 38.959 31.533l2.724 3.257c37.152-16.794 88.131-34.085 120.998-42.009C377.617 95.827 352 64 352 64zM181.229 53.532c9.241 6.122 22.68 16.481 35.999 31.924a199.224 199.224 0 0 0-13.888 13.247c-14.024-7.088-24.951-12.192-36.826-16.602 3.66-8.471 8.581-18.313 14.715-28.569M176 32c-15.256 22.406-25.684 45.299-30.336 59.997 21.111 6.355 35.475 13.215 61.389 26.574 9.505-11.4 20.415-21.626 32.605-30.543C210.342 47.655 176 32 176 32z"/></svg>