<svg id="Layer_1" xmlns="http://www.w3.org/2000/svg" width="512" height="512" viewBox="0 0 512 512"><path class="st0" d="M256 32C132.3 32 32 132.3 32 256s100.3 224 224 224 224-100.3 224-224S379.7 32 256 32zm147.1 371.1c-19.1 19.1-41.4 34.1-66.1 44.6-25.6 10.8-52.9 16.3-81 16.3s-55.3-5.5-81-16.3c-24.8-10.5-47-25.5-66.1-44.6C89.8 384 74.8 361.7 64.3 337 53.5 311.3 48 284.1 48 256s5.5-55.3 16.3-81c10.5-24.8 25.5-47 44.6-66.1C128 89.8 150.3 74.8 175 64.3 200.7 53.5 227.9 48 256 48s55.3 5.5 81 16.3c24.8 10.5 47 25.5 66.1 44.6 19.1 19.1 34.1 41.4 44.6 66.1 10.8 25.6 16.3 52.9 16.3 81s-5.5 55.3-16.3 81c-10.5 24.7-25.5 47-44.6 66.1z"/><circle class="st0" cx="256" cy="80" r="8"/><circle class="st0" cx="256" cy="432" r="8"/><circle class="st0" cx="432" cy="256" r="8"/><circle class="st0" cx="80" cy="256" r="8"/><circle class="st0" cx="168" cy="103.6" r="8"/><circle class="st0" cx="344" cy="408.4" r="8"/><circle class="st0" cx="408.4" cy="168" r="8"/><circle class="st0" cx="103.6" cy="344" r="8"/><circle class="st0" cx="103.6" cy="168" r="8"/><circle class="st0" cx="408.4" cy="344" r="8"/><circle class="st0" cx="344" cy="103.6" r="8"/><circle class="st0" cx="168" cy="408.4" r="8"/><path class="st0" d="M269.9 248c-2.9-5-8.1-7.8-13.4-8l-38-63.4c-2.3-3.8-7.2-5-11-2.7s-5 7.2-2.7 11l37.6 62.9c-2.9 4.8-3.2 11.1-.2 16.3 1.5 2.5 3.5 4.5 5.9 5.8V392c0 4.4 3.6 8 8 8s8-3.6 8-8V269.9c7.6-4.5 10.2-14.2 5.8-21.9z"/></svg>