<svg xmlns="http://www.w3.org/2000/svg" width="512" height="512" viewBox="0 0 512 512"><path d="M256 48c34.19 0 66.334 13.314 90.51 37.49S384 141.81 384 176c0 42.92-24.092 107.127-69.67 185.68-22.279 38.396-44.771 71.634-58.332 90.931-13.518-19.232-35.912-52.327-58.161-90.645C152.149 283.281 128 218.976 128 176c0-34.19 13.314-66.334 37.49-90.51S221.81 48 256 48m0-16c-79.529 0-144 64.471-144 144 0 112 144 304 144 304s144-192 144-304c0-79.529-64.471-144-144-144z"/><path d="M256 112c-35.3 0-64 28.7-64 64s28.7 64 64 64 64-28.7 64-64-28.7-64-64-64zm0 110.9c-25.9 0-46.9-21-46.9-46.9s21-46.9 46.9-46.9 46.9 21 46.9 46.9-21 46.9-46.9 46.9z"/></svg>