<svg xmlns="http://www.w3.org/2000/svg" width="512" height="512" viewBox="0 0 512 512"><path d="M368 416H80V144h224.117l16-16H64v304h320V191.883l-16 16z"/><path d="M237.623 284.084l-9.706-9.707L399.24 103.054 387.927 91.74 208 271.651V304h32.216l180.045-179.984-11.314-11.286zm206.59-203.772l-12.465-12.466C429.084 65.467 425.556 64 421.746 64a14.758 14.758 0 0 0-9.929 3.85L399.666 80l.08.08 11.293 11.293 21.02 21.02 12.15-12.15c2.383-2.625 3.791-6.117 3.791-9.929 0-3.81-1.408-7.339-3.787-10.002z"/></svg>