<svg xmlns="http://www.w3.org/2000/svg" width="512" height="512" viewBox="0 0 512 512"><path d="M264 308.988c0-21.975 20.458-38.674 40.247-54.824 7.907-6.453 15.37-12.547 21.519-18.962C352.313 207.505 352 183.458 352 164.144V160c0-44.25-30.816-124.558-32.02-128H192c-1.203 3.442-32 83.5-32 128v4.144c0 19.273-.323 43.361 26.225 71.059 6.148 6.415 13.617 12.509 21.523 18.962 19.789 16.15 40.252 32.85 40.252 54.824V464h-72v16h160v-16h-72V308.988zM202.729 48h106.522c5.359 15.99 19.509 62.712 24.836 96H177.894c5.327-33.288 19.476-80.01 24.835-96zM256 273.416c-2.968 0-5.248-.92-7.17-2.754a.2.2 0 0 0 .005.026c-8.804-10.807-20.234-20.158-30.971-28.92-7.517-6.135-14.617-11.929-20.089-17.637-22.054-23.008-21.928-40.916-21.795-59.875.01-1.428-.068-2.849.02-4.255h159.98c.088 1.406.01 2.828.021 4.255.133 18.959.259 36.867-21.795 59.875-5.472 5.708-12.57 11.502-20.087 17.637-10.737 8.762-22.165 18.114-30.969 28.92.002-.009.009-.018.01-.026-1.922 1.834-4.16 2.754-7.16 2.754z"/></svg>