<svg xmlns="http://www.w3.org/2000/svg" width="512" height="512" viewBox="0 0 512 512"><path d="M416 128a816.389 816.389 0 0 0-53.697 13.753c-40.457 11.858-75.509 25.693-105.445 40.015-19.271 9.219-26.236 13.393-51.522 27.859C147.001 243 112 278.926 112 351.889S167.635 480 256 480s144-55.148 144-128.111S338.999 224 416 128zM96 96c41.475 47.079 44.624 103.891 39.382 144.741 12.772-11.274 31.177-25.734 56.144-41.389a548.613 548.613 0 0 1 20.645-12.322c11.578-6.575 23.538-12.822 35.834-18.765-9.113-10.898-22.07-20.606-36.631-29.095C162.631 110.756 96 96 96 96zm256-32s-78.623 2.321-130.681 62.469c16.629 9.903 29.735 20.503 38.959 31.533l2.724 3.257c37.152-16.794 88.131-34.085 120.998-42.009C377.617 95.827 352 64 352 64zM176 32c-15.256 22.406-25.684 45.299-30.336 59.997 21.111 6.355 35.475 13.215 61.389 26.574 9.505-11.4 20.415-21.626 32.605-30.543C210.342 47.655 176 32 176 32z"/></svg>