<svg xmlns="http://www.w3.org/2000/svg" width="512" height="512" viewBox="0 0 512 512"><path d="M417.5 160h-61.725c-32.105-36-42.219-48-54.525-48h-88.5c-12.314 0-22.167 12-54.521 48H145v-16h-34v16H97.5C79.855 160 64 173.217 64 190.684v176.018C64 384.169 79.855 400 97.5 400h320c17.645 0 30.5-15.831 30.5-33.299V190.684C448 173.217 435.145 160 417.5 160zM313.076 330.782C297.17 344.434 276.9 352 256 352c-45.487 0-82.509-36-87.205-78h-29.479l37.534-50 38.87 50h-30.61c4.604 33 34.53 61.965 70.89 61.965 16.859 0 32.701-6.327 45.815-17.356l2.032-1.647 11.599 11.662-2.37 2.158zm22.018-23.557L296.248 256h30.644c-4.617-35-34.548-63.797-70.891-63.797-16.618 0-32.888 6.133-45.814 17.005l-2.033 1.706-11.599-11.61 2.371-2.052c15.905-13.65 36.175-21.206 57.075-21.206 22.333 0 43.548 8.063 59.736 22.839C331.275 213.064 340.966 236 343.207 256h29.512l-37.625 51.225z"/></svg>