<svg id="Layer_1" xmlns="http://www.w3.org/2000/svg" width="512" height="512" viewBox="0 0 512 512"><path class="st0" d="M332.1 179.4c-2.8 0-5.7-.1-8.4.3-8.3-36.8-35.2-67.6-80.3-67.6-50.9 0-82.3 38-82.3 83.6 0 2.8.1 5.5.4 8.2-27.7 2.5-49.5 31.3-49.5 59.8 0 29.2 22.9 54.6 51.6 56.2l-24.5 34.4c-1.1 1.6-2 3.4-2 5.5 0 4.6 3.7 8.3 8.3 8.3 3 0 5.6-1.6 7.1-4l31-43.8h36.1l-46.1 65.8c-1.2 1.6-2.1 3.6-2.1 5.6 0 4.6 3.7 8.3 8.3 8.3 3 0 5.6-1.8 7.2-4.3l52.6-75.5h37.9l-24.9 34.4c-1.2 1.6-2.2 3.8-2.2 5.6 0 4.6 3.7 8.3 8.3 8.3 3.1 0 5.4-1.7 7.2-4.1l31.6-44.3h34.7c.1 0 .3-.1.4-.1l-46.1 65.9c-1.3 1.7-2.3 3.6-2.3 5.8 0 4.6 3.7 8.3 8.3 8.3 3.2 0 5.5-2 7.4-4.5l55.5-79.8c26-9.9 44.6-35.8 44.6-65.2.1-37.7-30.3-71.1-67.8-71.1z"/></svg>