<svg xmlns="http://www.w3.org/2000/svg" width="512" height="512" viewBox="0 0 512 512"><path d="M362.121 207.146L352 194.854 413.784 144h-46.117c-93.327 0-129.147 74.511-163.787 138.832-1.62 3.008-3.233 6.004-4.846 8.979-19.836 36.607-40.979 61.242-64.64 75.314C120.573 375.346 101.401 384 64 384v-16.25c47.937 0 83.098-13.673 120.966-83.561a4257.1 4257.1 0 0 0 4.827-8.944C224.943 209.977 264.784 128 367.667 128h46.28L352 76.146 362.121 64 448 136l-85.879 71.146z"/><path d="M199.034 220.189c-19.836-36.607-40.979-61.242-64.64-75.314C120.573 136.654 101.401 128 64 128v16.25c47.937 0 83.098 13.673 120.966 83.561a3809.68 3809.68 0 0 1 4.827 8.944c.438.812.875 1.627 1.314 2.444 3.01-5.438 6.107-10.917 9.339-16.394-.469-.87-.942-1.749-1.412-2.616zm163.087 84.665L352 317.146 413.784 368h-46.117c-72.693 0-110.496-45.207-140.028-95.592a3465.545 3465.545 0 0 0-5.273 9.814c-1.175 2.192-2.344 4.37-3.513 6.545C249.621 338.777 291.254 384 367.667 384h46.28L352 435.854 362.121 448 448 376l-85.879-71.146z"/></svg>