<svg xmlns="http://www.w3.org/2000/svg" width="512" height="512" viewBox="0 0 512 512"><path d="M417 278.742V278h29.814c-.931-23-6.056-45.609-14.831-66.151-8.643-20.228-20.503-38.665-35.257-54.562l-24.867 24.646-11.229-10.992 24.788-24.679c-16.187-14.836-34.86-26.742-55.515-35.392C308.479 101.897 286 97.092 263 96.186V130h-15V96.186c-23 .894-44.95 5.699-66.404 14.685-20.353 8.523-38.958 20.457-55.315 35.471l24.796 24.583-.549.549.001.006-.29.335-10.27 10.203-24.779-24.479c-14.77 15.932-26.604 34.243-35.176 54.309C71.241 232.388 66.117 255 65.187 278H94v16H65.187c.926 22 5.915 44.432 14.829 65.297 7.689 18.001 18.398 34.664 31.831 49.926 38.785-37.377 89.958-57.928 144.154-57.928 54.113 0 105.286 20.676 144.154 58.135 13.354-15.175 24.061-31.979 31.83-50.166C440.9 338.396 445.889 316 446.814 294H417v-15.258zm-113 9.196c0 26.467-21.533 48-48 48-10.223 0-19.701-3.223-27.496-8.691l-12.033 12.033-11.312-11.313 11.948-11.948c-5.722-7.902-9.106-17.602-9.106-28.08 0-26.467 21.533-48 48-48a47.72 47.72 0 0 1 26.994 8.334l73.484-65.727 1.414 1.414-62.849 76.11c5.629 7.863 8.956 17.481 8.956 27.868z"/><path d="M256 64C132.288 64 32 164.226 32 287.938c0 56.975 21.283 108.97 56.316 148.5 3.551 4.006 7.241 7.82 11.066 11.562h22.193c31.713-39.103 80.144-64.096 134.424-64.096S358.711 408.897 390.424 448h22.193c3.825-3.742 7.516-7.557 11.066-11.562 35.033-39.53 56.316-91.525 56.316-148.5C480 164.226 379.712 64 256 64zm154.744 356.797c-3.051 3.408-6.392 6.863-10.213 10.564l-.376.365-.348-.393c-2.629-2.97-5.493-5.985-8.759-9.22-.275-.271-.555-.539-.834-.807l-.504-.485c-17.258-16.766-37.234-29.967-59.375-39.238-23.535-9.856-48.545-14.854-74.336-14.854-25.791 0-50.801 4.998-74.336 14.854-22.14 9.271-42.117 22.473-59.375 39.238l-.504.485c-.279.268-.558.535-.833.807-3.266 3.234-6.13 6.25-8.759 9.22l-.348.393-.377-.365c-3.821-3.701-7.162-7.156-10.212-10.564-33.514-37.441-51.971-85.629-51.971-135.685 0-54.666 21.502-106.053 60.545-144.694C148.87 101.779 200.781 80.5 256 80.5c55.22 0 107.13 21.279 146.17 59.918 39.043 38.642 60.545 90.029 60.545 144.694 0 50.056-18.456 98.243-51.971 135.685z"/><circle cx="256" cy="287.938" r="32"/></svg>