<svg xmlns="http://www.w3.org/2000/svg" width="512" height="512" viewBox="0 0 512 512"><path d="M127 99.2V80c0-8.8-7.2-16-16-16s-16 7.2-16 16v21.5c-8.5 5.8-14 15.5-14 26.5s5.5 20.7 14 26.5V432c0 8.8 7.2 16 16 16s16-7.2 16-16V156.8c10.7-5.2 18-16.1 18-28.8s-7.3-23.6-18-28.8zm96 193.7V80c0-8.8-7.2-16-16-16s-16 7.2-16 16v211.7c-10.1 5.4-17 16-17 28.3s6.9 22.9 17 28.3V432c0 8.8 7.2 16 16 16s16-7.2 16-16v-84.9c9-5.7 15-15.7 15-27.1s-6-21.4-15-27.1zm96-129.6V80c0-8.8-7.2-16-16-16s-16 7.2-16 16v83.3c-9.6 5.5-16 15.9-16 27.7s6.4 22.2 16 27.7V432c0 8.8 7.2 16 16 16s16-7.2 16-16V218.7c9.6-5.5 16-15.9 16-27.7s-6.4-22.2-16-27.7zM431 383c0-11.8-6.4-22.2-16-27.7V80c0-8.8-7.2-16-16-16s-16 7.2-16 16v275.3c-9.6 5.5-16 15.9-16 27.7s6.4 22.2 16 27.7V432c0 8.8 7.2 16 16 16s16-7.2 16-16v-21.3c9.6-5.5 16-15.9 16-27.7z"/></svg>