<svg xmlns="http://www.w3.org/2000/svg" width="512" height="512" viewBox="0 0 512 512"><path d="M288 160c0 17.7-14.3 32-32 32s-32-14.3-32-32V64c0-17.7 14.3-32 32-32s32 14.3 32 32v96zm-32 160c-17.7 0-32 14.3-32 32v96c0 17.7 14.3 32 32 32s32-14.3 32-32v-96c0-17.7-14.3-32-32-32zm192-96h-96c-17.7 0-32 14.3-32 32s14.3 32 32 32h96c17.7 0 32-14.3 32-32s-14.3-32-32-32zm-288 0H64c-17.7 0-32 14.3-32 32s14.3 32 32 32h96c17.7 0 32-14.3 32-32s-14.3-32-32-32zm186.5-13.3c-12.5 12.5-32.8 12.5-45.3 0s-12.5-32.8 0-45.3l67.9-67.9c12.5-12.5 32.8-12.5 45.3 0s12.5 32.8 0 45.3l-67.9 67.9zm-135.8 90.6c-12.5-12.5-32.8-12.5-45.3 0l-67.9 67.9C85 381.7 85 402 97.5 414.5s32.8 12.5 45.3 0l67.9-67.9c12.5-12.6 12.5-32.8 0-45.3zm203.7 67.8l-67.9-67.9c-12.5-12.5-32.8-12.5-45.3 0s-12.5 32.8 0 45.3l67.9 67.9c12.5 12.5 32.8 12.5 45.3 0s12.5-32.8 0-45.3zM210.7 165.5l-67.9-67.9c-12.5-12.5-32.8-12.5-45.3 0s-12.5 32.8 0 45.3l67.9 67.9c12.5 12.5 32.8 12.5 45.3 0s12.5-32.8 0-45.3z"/></svg>