<svg xmlns="http://www.w3.org/2000/svg" width="512" height="512" viewBox="0 0 512 512"><path d="M432 240h-80c-8.8 0-16 7.2-16 16s7.2 16 16 16h80c8.8 0 16-7.2 16-16s-7.2-16-16-16zm-256 16c0-8.8-7.2-16-16-16H80c-8.8 0-16 7.2-16 16s7.2 16 16 16h80c8.8 0 16-7.2 16-16zm80 80c-8.8 0-16 7.2-16 16v80c0 8.8 7.2 16 16 16s16-7.2 16-16v-80c0-8.8-7.2-16-16-16zm0-272c-8.8 0-16 7.2-16 16v80c0 8.8 7.2 16 16 16s16-7.2 16-16V80c0-8.8-7.2-16-16-16zm69.3 152c4.4 7.7 14.2 10.3 21.9 5.9l69.3-40c7.7-4.4 10.3-14.2 5.9-21.9s-14.2-10.3-21.9-5.9l-69.3 40c-7.7 4.5-10.3 14.2-5.9 21.9zm-138.6 80c-4.4-7.7-14.2-10.3-21.9-5.9l-69.3 40c-7.7 4.4-10.3 14.2-5.9 21.9s14.2 10.3 21.9 5.9l69.3-40c7.7-4.5 10.3-14.2 5.9-21.9zm131.2 35.1c-4.4-7.7-14.2-10.3-21.9-5.9s-10.3 14.2-5.9 21.9l40 69.3c4.4 7.7 14.2 10.3 21.9 5.9 7.7-4.4 10.3-14.2 5.9-21.9l-40-69.3zm-136-235.5c-4.4-7.7-14.2-10.3-21.9-5.9-7.7 4.4-10.3 14.2-5.9 21.9l40 69.3c4.4 7.7 14.2 10.3 21.9 5.9s10.3-14.2 5.9-21.9l-40-69.3zM296 186.7c7.7 4.4 17.4 1.8 21.9-5.9l40-69.3c4.4-7.7 1.8-17.4-5.9-21.9-7.7-4.4-17.4-1.8-21.9 5.9l-40 69.3c-4.4 7.7-1.8 17.5 5.9 21.9zm-80 138.6c-7.7-4.4-17.4-1.8-21.9 5.9l-40 69.3c-4.4 7.7-1.8 17.4 5.9 21.9 7.7 4.4 17.4 1.8 21.9-5.9l40-69.3c4.4-7.7 1.8-17.5-5.9-21.9zm200.4 4.8l-69.3-40c-7.7-4.4-17.4-1.8-21.9 5.9-4.4 7.7-1.8 17.4 5.9 21.9l69.3 40c7.7 4.4 17.4 1.8 21.9-5.9 4.4-7.7 1.8-17.4-5.9-21.9zM95.6 181.9l69.3 40c7.7 4.4 17.4 1.8 21.9-5.9s1.8-17.4-5.9-21.9l-69.3-40c-7.7-4.4-17.4-1.8-21.9 5.9-4.4 7.7-1.8 17.4 5.9 21.9z"/></svg>