<svg xmlns="http://www.w3.org/2000/svg" width="512" height="512" viewBox="0 0 512 512"><path d="M384 176.905V128C384 57.308 326.692 0 256 0S128 57.308 128 128v48.906C88.725 212.062 64 263.141 64 320c0 106.039 85.962 192 192 192 106.039 0 192-85.961 192-192 0-56.859-24.725-107.938-64-143.095zM160 128c0-52.935 43.065-96 96-96s96 43.065 96 96v25.692C323.759 137.355 290.973 128 256 128s-67.759 9.355-96 25.693V128zm96 352c-88.366 0-160-71.634-160-160s71.634-160 160-160 160 71.634 160 160-71.634 160-160 160z"/><path d="M256 176c-79.529 0-144 64.472-144 144s64.471 144 144 144 144-64.472 144-144-64.471-144-144-144zm122.533 177.487l-24.12-7.896-3.926 12.19 24.161 7.912a127.543 127.543 0 0 1-14.252 27.409l-10.56-7.737-3.74 5.184 10.555 7.734a126.978 126.978 0 0 1-21.028 21.682l-14.982-20.787-10.284 7.532 14.976 20.776a125.91 125.91 0 0 1-27.398 13.532l-3.96-12.294-6.049 1.982 4.924 12.262C283.335 445.77 273 447.497 264 448v-19h-16v19c-11-.506-19.705-2.244-29.243-5.065l3.948-11.206-6.25-2.106-3.539 11.224a125.5 125.5 0 0 1-26.864-13.359l14.997-20.774-10.27-7.534-14.977 20.787a126.947 126.947 0 0 1-20.953-21.583l9.556-6.998-3.971-5.507-9.562 7a127.464 127.464 0 0 1-14.093-27.186l24.162-7.914-3.926-12.188-24.121 7.897c-2.49-9.431-3.954-18.488-4.258-29.487H134v-6.805l-5.993-.002c.223-10.606.672-20.88 3.266-30.682l24.921 7.9 4.347-12.188-23.966-7.914c3.585-9.57 8.36-18.583 13.985-26.879l10.339 7.533 3.759-5.184-10.292-7.545a126.835 126.835 0 0 1 21.434-22.197l14.984 20.787 10.284-7.536-14.975-20.774a125.584 125.584 0 0 1 27.16-13.449l3.955 12.247 6.044-1.98-4.62-12.231C228.21 194.258 237 192.508 248 192v19h16v-19c9 .498 19.159 2.198 28.585 4.951l-4.761 13.28 6.182 2.106 4.174-13.312c9.696 3.408 18.778 7.957 27.208 13.491l-15.002 20.775 10.267 7.535 14.975-20.787a127.02 127.02 0 0 1 21.255 21.977l-11.299 8.268 3.975 5.512 11.276-8.26a127.654 127.654 0 0 1 13.816 26.775l-24.165 7.914 3.928 12.188 24.12-7.9c2.586 9.802 5.251 20.075 5.47 30.683l-8.004-.004V324h6.789c-.303 10.999-1.769 20.057-4.256 29.487z"/><circle cx="256" cy="320" r="81"/></svg>