<svg xmlns="http://www.w3.org/2000/svg" width="512" height="512" viewBox="0 0 512 512"><path d="M256 32c-115 .5-192 77.6-192 199.8 0 48.8 2.1 76.8 14.5 127.8 15.9 65.7 39.1 113.3 39.1 113.3l.6 1.3c1.9 3.4 5.5 5.8 9.8 5.8 1.4 0 2.7-.2 4-.7l1.7-.8 50.3-20.7 1.8-.8c3.3-1.9 5.5-5.3 5.5-9.3-.2-1.4-.4-2.8-1-4-.1-.1-.1-.2-.2-.4-7-16-27.2-59.2-37-101.1-9.9-41.9-13.5-62.4-13.5-107.7C139.6 163.4 192 112 256 112s116.4 51.4 116.4 122.5c0 45.3-3.7 65.8-13.6 107.7-9.9 41.9-30 85.2-37 101.1-.1.2-.1.3-.2.4-.6 1.2-.8 2.6-1 4 0 4 2.2 7.4 5.5 9.3l1.8.8 50.3 20.7 1.7.8c1.3.5 2.6.7 4 .7 4.3 0 7.9-2.4 9.8-5.8l.6-1.3s23.2-47.6 39.1-113.3c12.4-51 14.5-79 14.5-127.8C448 109.6 371 32.5 256 32zm-83 412.2c.1.2.2.5.3.7l-42.8 17.6c-5.4-11.8-22.7-51-35.7-104.4l42.5-12.3c9.2 39.2 27.1 79.2 35.7 98.4zm208.4 18.3l-42.8-17.6c.1-.2.2-.4.3-.7 8.6-19.2 26.4-59.2 35.6-98.4l42.5 12.3c-12.9 53.4-30.2 92.6-35.6 104.4z"/></svg>