<svg xmlns="http://www.w3.org/2000/svg" width="512" height="512" viewBox="0 0 512 512"><path d="M256.4 32c-35.1.1-65.8 23.2-76.8 59.3-5.6 18.5-3.5 44.8-1.2 54.5 2.3 9.7 7.3 19.9 13.2 28.3 2.8 4.2 6.7 7.4 11.2 9.2.6.3 1.3.5 2 .8 3.3 1.1 6.5 2.2 10.1 3.1 11.8 3 27.1 4.7 41.1 4.8h2v-.1c14-.1 27.3-1.7 39.1-4.8 3.6-.9 6.9-2 10.2-3.1.7-.2 1.3-.5 1.9-.8 4.5-1.8 8.4-5 11.2-9.2 5.9-8.4 10.8-18.6 13.2-28.3 2.3-9.7 4.4-36-1.2-54.5-11-36-40.8-59.1-76-59.2zm38.9 169.1c-.4 0-.7 0-1.1.1-.6.1-1.3.3-1.9.4-2 .4-4.1.8-6.1 1.2-9.2 1.5-18.9 2.3-29 2.4-10.1-.1-22.3-.9-31-2.4-2.1-.4-4.2-.8-6.2-1.2-.6-.1-1.3-.3-1.9-.4-.4-.1-.8-.1-1.1-.1-6.1 0-11 5.3-11.2 11.9.1.8.2 1.6.2 2.4 4.8 67.2 16.8 240.7 18.2 252 0 0 2.8 12.7 32.1 12.6 29.2.1 32.1-12.6 32.1-12.6 1.4-11.3 13.4-184.8 18.2-252 0-.8.1-1.6.2-2.4-.5-6.6-5.4-11.9-11.5-11.9zM266 281.7c0 6-4.5 10.9-10 10.9s-10-4.9-10-10.9V249c0-6 4.5-10.9 10-10.9s10 4.9 10 10.9v32.7z"/></svg>