<svg xmlns="http://www.w3.org/2000/svg" width="512" height="512" viewBox="0 0 512 512"><path d="M256 32c-.46 0-.917.011-1.376.015l5.747.057A147.44 147.44 0 0 0 256 32zm122.553 161.211c-.195.064-.414.16-.619.269-34.234 13.289-76.337 22.52-121.886 22.475-45.52-.076-87.626-9.398-121.81-22.772a4.153 4.153 0 0 0-.647-.265c-1.531-.554-3.146-.897-4.841-.917-.254-.001-.5-.013-.75 0v176.012C128 429.892 185.308 480 256 480c21.992 0 42.687-4.803 60.766-13.355.095-.045.191-.087.286-.133l.08-.039a141.38 141.38 0 0 0 14.122-7.828C363.219 438.275 384 405.271 384 368.012V192c-.191-.008-.496 0-.689 0-1.727.014-3.219.651-4.758 1.211zm-61.421 273.213l-.08.039-.286.133.286-.133.08-.039a141.155 141.155 0 0 0 14.122-7.825 131.95 131.95 0 0 1-14.122 7.825z"/><path d="M331.254 458.599a141.155 141.155 0 0 1-14.122 7.825 131.95 131.95 0 0 0 14.122-7.825zM260.371 32.072l-5.747-.057C184.566 32.662 128 82.547 128 144v22.708a31.748 31.748 0 0 0 7.251 5.115c.673.337 1.386.659 2.059.996.032.027.077.01.109.036 22.757 10.35 51.429 15.801 83.415 19.006.694.078 1.397.107 2.148.12 11.258.016 17.014.019 17.018-10.57V96c0-8.836 7.164-16 16-16s16 7.164 16 16v86.328c-.088 9.672 5.926 9.72 17.2 9.749a31.112 31.112 0 0 0 2.081-.105c.062-.003.141.005.244-.02 31.682-3.119 60.143-8.405 82.808-18.59 1.162-.545 2.291-1.056 3.407-1.581a32.006 32.006 0 0 0 6.26-4.466V144c0-60.575-54.961-109.91-123.629-111.928z"/></svg>