<svg xmlns="http://www.w3.org/2000/svg" width="512" height="512" viewBox="0 0 512 512"><path d="M369.541 32H142.359C81.521 32 32 82.574 32 144.604v222.79C32 429.426 81.521 480 142.359 480h227.182C430.479 480 480 429.426 480 367.395v-222.79C480 82.574 430.479 32 369.541 32zM175 250.954v.67c0 10.882-9.09 20.376-19.875 20.376h-23.27C121.073 272 112 262.506 112 251.624V148.161c1-10.768 9.193-20.161 19.855-20.161h23.27c10.886 0 19.875 9.847 19.875 20.831v102.123zM297 395.74v2.68c0 11.439-8.872 17.58-20.1 17.58h-41.798c-11.23 0-20.102-8.141-20.102-19.58v-29.317c0-23.33 18.118-42.287 40.999-42.287 22.883 0 41.001 18.957 41.001 42.287v28.637zm103-144.786v.67c0 10.882-9.071 20.376-19.855 20.376h-24.27C345.093 272 336 262.506 336 251.624V148.161c1-10.768 9.215-20.161 19.875-20.161h24.27c10.784 0 19.855 9.847 19.855 20.831v102.123z"/></svg>