<svg xmlns="http://www.w3.org/2000/svg" width="512" height="512" viewBox="0 0 512 512"><path d="M324.6 154.9c-6.3-.1-11.4 5.1-11.4 11.6l-.2 194.8c-.1 43.8-29.7 63.4-57.2 63.2-27.5-.3-57.1-20.4-57-64.1 0-33.5.2-167.7.3-234.8 0-15.4 6-27.4 16.8-33.7 10.6-6.2 24.4-6.1 35 .3 10.8 6.5 16.7 18.6 16.7 34l-.3 224.5c0 7.3-1.7 13.3-4.7 17.1-1.9 2.4-4.4 3.8-6.9 3.8-5.6-.1-11.4-7.3-11.3-20.8 0 0 .2-166.3.3-172.7 0-6.5-5.1-11.8-11.4-11.8-6.3 0-11.4 5.2-11.4 11.7l-.3 172.7c0 29 17.2 44.3 34.2 44.5 9.4.1 18.3-4.4 24.6-12.4 6.3-8 9.7-19 9.7-31.8l.3-224.5c0-23.8-10.2-43.6-28.1-54.3-17.5-10.6-40.3-10.8-57.9-.5-17.9 10.5-28.2 30.1-28.3 53.9-.1 67-.2 201.2-.3 234.8-.1 57.2 40.1 87.4 79.8 87.8 20.5.2 41.1-7.7 56.3-23.1 14.2-14.5 23.7-35.7 23.7-63.4l.1-194.9c.3-6.6-4.8-11.9-11.1-11.9z"/></svg>