<svg xmlns="http://www.w3.org/2000/svg" width="512" height="512" viewBox="0 0 512 512"><path d="M331.8 228c-1.2-.5-2.4-1-3.5-1.7-7-4-12.2-10.9-13.9-19.2L295.9 89.4l-.2-5.8c0-7.1 4.1-10.2 10-13l2.1-.9c7.2-3.4 12.1-7.8 12.1-16.3 0-20.1-6.5-21.4-18.2-21.4h-91.3c-11.7 0-18.2 1.2-18.2 21.4 0 8.5 4.9 12.9 12.1 16.3.7.3 1.4.5 2.1.9 5.9 2.9 10 6 10 13l-.2 5.8-18.5 117.7c-1.7 8.3-6.9 15.2-13.9 19.2-1.1.7-2.3 1.2-3.5 1.7-19.7 10.2-36.2 30.8-36.2 54.7 0 15.9 3.5 21.3 15.2 21.3H240l12 176h8l12-176h80.8c11.7 0 15.2-4.7 15.2-21.3 0-23.9-16.5-44.5-36.2-54.7z"/></svg>