<svg xmlns="http://www.w3.org/2000/svg" width="512" height="512" viewBox="0 0 512 512"><path d="M96.298 265.705C101.315 349.55 170.887 416 255.988 416c37.957 0 72.818-13.227 100.25-35.311-39.008-11.135-82.238-26.767-126.676-46.072-48.831-21.213-94.605-44.94-133.264-68.912zm11.083-69.076c39.911 27.11 92.07 55.13 147.679 79.287 43.591 18.938 87.113 34.555 125.859 45.164a617.96 617.96 0 0 0 18.988 4.883 159.984 159.984 0 0 0 4.688-10.591c7.341-18.358 11.386-38.393 11.386-59.372 0-3.26-.109-6.493-.301-9.705C410.661 162.45 341.09 96 255.988 96c-37.956 0-72.817 13.227-100.248 35.311-18.296 14.729-33.284 33.398-43.67 54.726a158.466 158.466 0 0 0-4.689 10.592z"/><path d="M429.667 284.531c-1.256 11.562-2.377 13.627-5.891 24.695 16.878 12.039 31.032 23.706 41.137 33.938 3.285 3.328 5.875 6.225 7.912 8.702-1.684.084-3.557.133-5.631.133-21.886 0-54.026-5.5-90.501-15.488-39.467-10.806-83.73-26.685-128.008-45.92-58.931-25.6-114.158-55.541-155.51-84.307-19.081-13.275-35.027-26.226-46.113-37.45-3.285-3.328-5.875-6.225-7.912-8.702 1.683-.084 3.556-.133 5.632-.133 15.308 0 35.637 2.694 58.952 7.729 5.825-10.004 6.979-12.701 14.663-21.409C92.663 137 66.625 130.522 44.784 128 20.381 125.182 4.444 133.521.8 145.14-10.274 180.457 95 258.718 235.936 319.942 330.498 361.022 417.104 384 467.194 384c24.565 0 40.338-5.521 43.982-17.141 6.34-20.216-24.211-46.859-81.509-82.328z"/></svg>