<svg xmlns="http://www.w3.org/2000/svg" width="512" height="512" viewBox="0 0 512 512"><path d="M472 239.2s-.1 0 0 0L282.1 48.1l-1.4-1.4h-.5c-7.5-7.2-16.1-10.9-27.1-11.1l-89.9-3.3-3.9-.1c-10.1.1-20 4.1-27.7 11.8l-27.1 27.2c7.4-6.6 16.6-10 26-10.1l3.8.1 89.8 3.3c11 .2 19.7 3.9 27.2 11.1h.5l1.4 1.4L443 268.1c10 10.8 10.7 28.2 0 38.9l29-28.9c10.6-10.7 10-28.1 0-38.9z"/><path d="M428 282.5h.3L238.6 91.4l-1.3-1.4h-.3c-7.5-7.2-15.9-10.9-26.9-11.1L120 75.6l-4-.1c-9.2.1-18.2 3.4-25.6 9.8-.3.3-.7.6-1 .9l-1.2 1.2-44.3 44.5C35.8 140 32 150.8 32 161.4v.1l.1 3.8 5.9 87.9v1.9c1 7.9 4.2 15.6 9.6 22l5.1 4.9L239 470.4l2.8 2.8c10.7 9.4 27.1 9 37.3-1.3l13.1-13.2c.5-.4.9-.8 1.4-1.3l26.9-27c-.2.1-.3.2-.5.4l108.3-109.3c10.6-10.7 10.7-28.2-.3-39zm-317.4-143c6.6-4 14.3-6.3 22.6-6.3 23.9 0 43.4 19.4 43.4 43.4 0 8.3-2.3 16-6.3 22.6-7.6 12.5-21.3 20.8-37 20.8-23.9 0-43.4-19.4-43.4-43.4-.1-15.8 8.2-29.5 20.7-37.1z"/></svg>