<svg xmlns="http://www.w3.org/2000/svg" width="512" height="512" viewBox="0 0 512 512"><path d="M416 352l96-111.9h-64.7c-2.3-27.9-10.5-54-23.5-77.3-27.4-49.2-75.8-85.1-133-95.6-.7-.1-1.5-.3-2.2-.4-.5-.1-.9-.2-1.4-.2-10.1-1.7-20.6-2.6-31.2-2.6h-.4c-90.9.2-167 63.6-186.7 148.6v.1c-.3 1.1-.5 2.2-.7 3.3-.1.5-.2.9-.3 1.4-.1.7-.3 1.4-.4 2.1-.2.9-.3 1.7-.5 2.6-.1.4-.1.7-.2 1.1l-.6 3.6v.2c-1 6.3-1.6 12.7-1.9 19.1v.8c-.1 1.4-.1 2.7-.2 4.1 0 1.6-.1 3.3-.1 5 0 1.7 0 3.3.1 5 0 1.4.1 2.7.2 4.1v.9c.3 6.5 1 12.9 1.9 19.1v.2l.6 3.6c.1.4.1.7.2 1.1.2.9.3 1.8.5 2.6.1.7.3 1.4.4 2.1.1.5.2 1 .3 1.4.2 1.1.5 2.2.7 3.2v.1C88.6 384.4 165 447.8 256 448c42.9-.1 83.1-14.2 116.9-40.7l7.5-5.9-43.2-46.2-6.2 4.6c-22.1 16.3-47.5 24.2-75 24.2-70.6 0-128-57-128-128s57.4-128 128-128c66.4 0 122.8 46.6 129.5 112H312l104 112z"/></svg>