<svg xmlns="http://www.w3.org/2000/svg" width="512" height="512" viewBox="0 0 512 512"><path d="M405.178 115.667c13.314-32.667 17.309-64-5.326-83.667L255.726 224l-16.976 23s-27.627 40.011-37.28 58.667-19.306 39.333-27.294 54c-7.01 12.871-10.438 15.221-14.322 11.548a58.37 58.37 0 0 0-1.553-1.736l-.11-.138c-1.143-1.472-2.75-3.002-4.635-4.467C144.195 356.795 132.548 352 119.92 352 89.037 352 64 380.653 64 416s25.037 64 55.92 64c25.282 0 46.635-19.205 53.553-45.561l-.004.043S186.824 393 206.13 363s49.596-43 49.596-43l31.954-32s104.183-139.666 117.498-172.333zM119.92 448c-15.418 0-27.918-14.353-27.918-32s12.5-32 27.918-32c15.419 0 27.918 14.353 27.918 32s-12.499 32-27.918 32zM256 288c-8.836 0-16-7.163-16-16 0-8.836 7.164-16 16-16 8.837 0 16 7.164 16 16 0 8.837-7.163 16-16 16z"/><path d="M207.28 265.255a1318.847 1318.847 0 0 1 18.304-27.346l.143-.208.15-.203 16.976-23 .038-.052.039-.052 2.941-3.918L111.896 32c-22.634 19.667-18.64 51-5.326 83.667 9.953 24.42 70.679 108.623 100.71 149.588zM391.828 352c-12.628 0-24.275 4.795-33.637 12.874-1.885 1.465-3.492 2.995-4.635 4.467l-.109.138a61.157 61.157 0 0 0-1.553 1.736c-3.884 3.673-7.312 1.323-14.322-11.548-7.988-14.667-17.641-35.344-27.294-54-1.77-3.421-4.146-7.561-6.843-12.038a2279.051 2279.051 0 0 1-2.932 3.938l-.688.924-.813.815-28.688 28.729c10.433 6.855 24.565 18.276 35.306 34.965 19.305 30 32.66 71.482 32.66 71.482l-.004-.043c6.917 26.356 28.27 45.561 53.552 45.561C422.711 480 448 451.347 448 416s-25.289-64-56.172-64zm0 96c-15.42 0-27.918-14.353-27.918-32s12.498-32 27.918-32c15.418 0 27.918 14.353 27.918 32s-12.5 32-27.918 32z"/></svg>