<svg xmlns="http://www.w3.org/2000/svg" width="512" height="512" viewBox="0 0 512 512"><path d="M450 138.3l-47.7 48.5-2.7 2.8-1.6 1.7c-1.1.8-2.4 1.2-3.9 1.2-1.6 0-3.1-.6-4.3-1.6l-.9-.9-2.7-2.7-41.3-42.1-2.2-2.2-1.7-1.7c-1-1.5-1.6-3.4-1.6-5.3 0-1.7.6-3.2 1.6-4.4l.7-.8 2.6-2.6 47.9-48.7c-5.1-10.1-24.7-14.9-35.1-14.1-17.1 1.3-34.7 7-52.8 25.5-.7.8-1.5 1.6-2.2 2.3-24.6 26.8-29.5 62.8-19.5 95.8.7 1.4 1.3 3.1 1.6 4.6 1.1 5.5-.4 10.2-4 13.5l-37.9 36.4c-11.8-12-13.5-13.6-13.5-13.6-2-2-6-3.3-9.5-1.2l-5.9 3.6c-22.7-23.1-32.3-32.4-35.4-43.6-3.2-11.7-.3-27.3 2.7-33.1 2.5-4.6 10.3-8.9 16.9-9.4l8.6 8.8c2 2 5.1 2 7.1 0l30.9-31.4c2-2 2-5.3 0-7.3l-49.9-50.7c-2-2-5.2-2-7.1 0L156.3 97c-2 2-2 5.3 0 7.3l3.3 3.4c0 4.9-.7 12.5-4.7 16.6-6.2 6.3-18.5-1-26.5 4.7-7.9 5.6-17.9 14.6-24.3 21-6.3 6.4-30.5 31.8-47.8 74.6-17.3 42.8-4 82.5 5.4 92.9 5 5.5 14.1 11.1 12.5.7-1.6-10.5-4.2-46.9 7.7-61.8 11.9-14.9 27.6-27.1 48-28.1 19.6-1 30.9 5.7 56.3 31.5l-2.8 5.2c-1.8 3.4-.8 7.7 1.2 9.7 0 0 1.5 1.6 12.1 12.4l-97.2 93.2c-16.2 14.3-15.3 40.5-.3 56 15.2 15.2 41.1 16.3 55.2-.2l91.4-98.6c49.1 52.3 93.3 107.4 93.3 107.4 2 2 5.2 2 7.1 0l49.9-50.7c2-2 2-5.2 0-7.3 0 0-55.2-45.7-107-96.2l35.5-38.3c3.3-3.7 7.9-5.2 13.3-4.1 1.5.3 3.1 1 4.5 1.7 32.4 10.2 67.8 5.2 94-19.8.8-.7 1.5-1.5 2.3-2.3 18.1-18.4 23.7-36.4 25-53.8 1-10.6-3.5-30.3-13.7-35.8z"/></svg>