<svg xmlns="http://www.w3.org/2000/svg" width="512" height="512" viewBox="0 0 512 512"><g fill="#231F20"><path d="M178.354 287.478c-9.123 0-16.928 4.207-23.201 12.833-6.291 8.478-9.398 18.973-9.398 31.431 0 12.474 3.166 23.008 9.398 31.509 6.273 8.54 14.039 12.771 23.201 12.771 8.494 0 15.889-4.27 22.121-12.771 6.271-8.501 9.398-19.035 9.398-31.509 0-12.419-3.166-22.93-9.398-31.431-6.233-8.587-13.567-12.833-22.121-12.833zm156.314 0c-9.045 0-16.891 4.207-23.182 12.833-6.271 8.478-9.359 18.973-9.359 31.431 0 12.474 3.186 23.008 9.359 31.509 6.291 8.54 14.098 12.771 23.182 12.771 8.533 0 15.906-4.27 22.178-12.771 6.293-8.501 9.418-19.035 9.418-31.509 0-12.419-3.164-22.93-9.418-31.431-6.272-8.587-13.547-12.833-22.178-12.833z"/><path d="M445.777 172h-.059s2.793-14.264.314-39.18c-2.182-24.916-7.471-47.838-16.123-68.82 0 0-4.422.76-12.76 2.896s-22.08 6.299-40.938 14.768c-18.541 8.54-37.986 19.788-58.297 33.505-13.803-3.934-34.408-5.939-61.994-5.939-26.289 0-46.914 2.012-61.977 5.945C149.351 84.316 112.111 67.23 81.851 64c-8.594 20.982-13.883 43.991-16.045 68.97-2.398 24.939.432 39.329.432 39.329C41.979 198.551 32 236.541 32 267.793c0 24.244.658 46.078 6.125 65.48 5.564 19.31 12.662 35.13 21.098 47.221 8.611 12.121 19.012 22.788 31.576 31.938 12.467 9.314 23.988 15.962 34.389 20.216 10.461 4.372 22.375 7.602 35.982 9.861 13.33 2.386 23.438 3.645 30.477 3.996 0 0 28 1.494 64.354 1.494s64.295-1.494 64.295-1.494c7.02-.352 17.145-1.634 30.535-3.996 13.547-2.299 25.521-5.607 35.941-9.861 10.402-4.293 21.943-10.901 34.469-20.216 12.523-9.032 22.906-19.739 31.518-31.938 8.436-12.091 15.494-27.911 21.098-47.221 5.486-19.402 6.145-41.385 6.145-65.629C480 237.389 469.982 199 445.777 172zm-65.394 233.645C352.521 418.736 311.486 424 257.061 424l-2.143-.039c-54.443 0-95.361-5.248-122.848-18.41-27.508-13.092-41.271-40.057-41.271-80.738 0-24.33 8.572-43.99 25.482-59.107 7.354-6.515 16.438-11.019 27.645-13.717 11.129-2.558 21.354-2.762 30.969-2.465 9.398.415 22.551 2.196 39.344 3.464C231.029 254.285 243.535 256 256 256c11.698 0 27.213-1.957 52.104-3.959 24.99-1.971 43.494-2.971 55.467-1 12.289 2.002 22.986 6.202 32.129 14.742 17.734 15.751 26.602 35.505 26.602 59.084-.001 40.666-14.138 67.67-41.919 80.778z"/></g></svg>