<svg xmlns="http://www.w3.org/2000/svg" width="512" height="512" viewBox="0 0 512 512"><path d="M192 104.001v197.017c0 41.567-9.644 71.988-28.662 90.417C146.278 407.965 121.277 416 86.907 416c-12.002 0-25.78-1.496-37.185-3.886l4.09-30.505c7.146 1.269 15.465 2.149 24.774 2.149 21.92 0 37.892-6.459 48.827-19.745C138.73 350.268 144 330.085 144 300.499V104.001h48m16-16h-80v212.498c0 52.58-18.032 67.261-49.412 67.261-14.705 0-27.948-2.521-38.25-6.063L32 423.904C46.7 428.966 69.259 432 86.907 432 158.955 432 208 398.129 208 301.02V88.001zM382.463 96c24.458 0 45.898 3.146 65.1 9.585l-9.581 32.062c-13.612-5.505-32.536-10.937-56.486-10.937-18.607 0-34.462 4.584-45.849 13.256-11.732 8.936-18.194 21.583-18.194 35.613 0 34.974 33.062 48.149 71.347 63.405l.107.043.108.041c26.977 10.299 45.938 22.261 57.969 36.572C458.593 289.451 464 305.543 464 326.284c0 25.177-9.333 46.71-26.99 62.274-20.35 17.939-51.417 27.422-89.843 27.422-28.052 0-54.698-6.427-72.615-13.979l7.593-31.603c17.579 7.248 41.882 14.382 69.438 14.382 20.28 0 36.629-4.478 48.591-13.306 12.807-9.45 19.857-23.697 19.857-40.119 0-15.348-6.041-27.922-18.469-38.444-10.157-8.603-24.801-16.048-47.467-24.136-26.86-9.904-47.359-21.947-60.934-35.795C278.922 218.455 272 201.829 272 182.154c0-24.149 9.831-45.101 28.43-60.591C320.51 104.839 348.876 96 382.463 96m0-16C305.02 80 256 123.998 256 182.154c0 50.083 37.751 81.44 92.641 101.665 39.7 14.158 55.392 26.808 55.392 47.539 0 22.756-18.139 37.425-52.448 37.425-31.863 0-60.789-10.64-80.394-21.255v-.021L256 410.727c18.639 10.638 53.441 21.255 91.167 21.255C437.854 431.98 480 383.43 480 326.284c0-48.55-26.958-79.9-85.278-102.163-43.139-17.191-61.27-26.795-61.27-48.542 0-17.2 15.688-32.869 48.043-32.869 31.846 0 53.744 10.707 66.505 17.291l19.125-64C447.125 87.22 420.188 80 382.463 80z"/></svg>