<svg xmlns="http://www.w3.org/2000/svg" width="512" height="512" viewBox="0 0 512 512"><path d="M119.9 336.1c-30.8 0-55.9 25.1-55.9 55.8 0 30.8 25.1 55.6 55.9 55.6 30.9 0 55.9-24.9 55.9-55.6 0-30.7-25-55.8-55.9-55.8zm0 95.4c-22 0-39.9-17.8-39.9-39.6 0-21.9 17.9-39.8 39.9-39.8s39.9 17.9 39.9 39.8c0 21.8-17.9 39.6-39.9 39.6z"/><path d="M64 192v79.9c48 0 94.1 14.2 128 48.1 33.9 33.9 48 79.9 48 128h80c0-139.9-116-256-256-256zm239.5 240h-48c-3.1-49.7-21-92.1-52.2-123.3-31.2-31.3-73.3-49.2-123.3-52.3v-47.8c26 1.8 52.1 8 76.7 18.5 28.5 12.2 54.2 29.6 76.4 51.8 22.2 22.2 39.6 47.9 51.8 76.4 10.6 24.6 16.8 50.3 18.6 76.7z"/><path d="M64 64v79.9c171 0 303.9 133 303.9 304.1H448C448 236.3 276 64 64 64zm227.4 156.5C235.4 164.4 161 132 80 128.2V80.3C270 88.5 423.5 241.8 431.7 432h-48.2c-3.8-80.9-36.2-155.5-92.1-211.5z"/></svg>