<svg xmlns="http://www.w3.org/2000/svg" width="512" height="512" viewBox="0 0 512 512"><path d="M352 208v149h-39v67c0 4.4-3 7.9-7.3 8h-.4c-1.6 0-3.1-.6-4.3-1.6l-.1-.1-.4-.1c-2-1.6-3.4-4-3.4-6.2v-67H216v67c0 4.4-3.6 8-8 8s-8-3.6-8-8v-67h-40V208h192m16-16H144v166c0 6.9 5.5 15 12.4 15H184v51c0 13.3 10.7 24 24 24s24-10.7 24-24v-51h49v51c0 7.5 3.9 14.2 9.3 18.6 3.9 3.4 9.3 5.4 15 5.4h.2c13.3 0 23.6-10.7 23.6-24v-51h28.6c7 0 10.4-8.1 10.4-14.9V192h-.1zm40 0c4.4 0 8 3.6 8 8v96c0 4.4-3.6 8-8 8s-8-3.6-8-8v-96c0-4.4 3.6-8 8-8m0-16c-13.3 0-24 10.7-24 24v96c0 13.3 10.7 24 24 24s24-10.7 24-24v-96c0-13.3-10.7-24-24-24zm-304 16c4.4 0 8 3.6 8 8v96c0 4.4-3.6 8-8 8s-8-3.6-8-8v-96c0-4.4 3.6-8 8-8m0-16c-13.3 0-24 10.7-24 24v96c0 13.3 10.7 24 24 24s24-10.7 24-24v-96c0-13.3-10.7-24-24-24zM255 94.3h.9c14.2 0 27.3 1.9 38.8 5.6l10 4.4c28.7 12.6 39.9 37.4 44.4 55.7H162.8c4.4-18.6 15.6-43.6 44.1-56l10.3-4.5c11.3-3.4 24-5.2 37.8-5.2M185.4 64c-.5 0-1.2.2-1.8.8-1.1.8-1.7 1.8-1.3 2.5l18.3 22.1c-48.2 20.9-55.4 71.7-56.4 86.7h223.6c-1.1-15-8.2-65.1-56.6-86.4l18.5-22.2c.4-.5-.2-1.7-1.3-2.6-.7-.5-1.5-.8-2-.8-.3 0-.5.1-.7.3l-19.2 22.7c-13.6-5.4-30.2-8.8-50.6-8.8h-1c-20 0-36.4 3.3-49.8 8.5l-19-22.5c0-.2-.3-.3-.7-.3z"/><path d="M206.6 138.9c-7.4 0-13.5-6-13.5-13.3 0-7.3 6-13.3 13.5-13.3 7.4 0 13.5 6 13.5 13.3 0 7.3-6 13.3-13.5 13.3zm98.4 0c-7.4 0-13.5-6-13.5-13.3 0-7.3 6-13.3 13.5-13.3 7.4 0 13.5 6 13.5 13.3 0 7.3-6.1 13.3-13.5 13.3z"/></svg>