<svg xmlns="http://www.w3.org/2000/svg" width="512" height="512" viewBox="0 0 512 512"><path d="M256 32C132.3 32 32 132.3 32 256s100.3 224 224 224 224-100.3 224-224S379.7 32 256 32zm135.8 359.8C355.5 428 307.3 448 256 448c-16.2 0-32.1-2-47.4-5.9 2.8-6.3 5.2-12.8 7-19.3 2.8-10 15.8-61.6 15.8-61.6 7.8 14.8 30.5 27.9 54.7 27.9 72 0 120.9-65.6 120.9-153.5 0-66.4-56.3-128.3-141.8-128.3-106.4 0-160.1 76.3-160.1 139.9 0 38.5 14.6 72.8 45.9 85.6 5.1 2.1 9.7.1 11.2-5.6 1-3.9 3.5-13.9 4.6-18 1.5-5.6.9-7.6-3.2-12.5-9-10.7-14.8-24.4-14.8-43.9 0-56.6 42.3-107.3 110.3-107.3 60.1 0 93.2 36.7 93.2 85.8 0 64.6-28.6 119.1-71 119.1-23.4 0-41-19.4-35.4-43.1 6.7-28.4 19.8-59 19.8-79.5 0-18.3-9.8-33.6-30.2-33.6-24 0-43.2 24.8-43.2 58 0 21.1 7.2 35.4 7.2 35.4S175 391.5 170.7 409.7c-1.3 5.5-2.2 11.1-2.9 16.8-17.3-9-33.3-20.6-47.4-34.8C84 355.5 64 307.3 64 256s20-99.5 56.2-135.8C156.5 84 204.7 64 256 64s99.5 20 135.8 56.2C428 156.5 448 204.7 448 256s-20 99.5-56.2 135.8z"/></svg>