<svg xmlns="http://www.w3.org/2000/svg" width="512" height="512" viewBox="0 0 512 512"><path d="M223.5 82.1c11.8 9.6 36.4 29.7 36.4 68 0 37.3-21.5 54.9-43.1 71.5-6.7 6.6-14.4 13.6-14.4 24.7s7.7 17.2 13.3 21.7l18.5 14.1c22.6 18.6 43.1 35.8 43.1 70.6 0 47.4-46.7 95.2-135 95.2-74.4.1-110.3-34.7-110.3-72 0-18.1 9.2-43.8 39.5-61.5 31.8-19.1 75-21.7 98-23.2-7.2-9.1-15.4-18.7-15.4-34.3 0-8.6 2.6-13.6 5.1-19.7-5.6.5-11.3 1-16.4 1-54.4 0-85.2-39.8-85.2-79.1 0-23.2 10.8-48.9 32.9-67.5C119.8 68 154.7 64 182.4 64h105.7l-32.8 18.1h-31.8zM187 305.9c-4.1-.5-6.7-.5-11.8-.5-4.6 0-32.3 1-53.9 8-11.3 4-44.1 16.1-44.1 51.9s35.4 61.5 90.3 61.5c49.3 0 75.4-23.2 75.4-54.4 0-25.7-16.9-39.3-55.9-66.5m14.9-95.8c11.8-11.6 12.8-27.7 12.8-36.8 0-36.3-22.1-92.7-64.7-92.7-13.3 0-27.7 6.5-35.9 16.6-8.7 10.6-11.3 24.2-11.3 37.3 0 33.8 20 89.7 64.2 89.7 12.8.1 26.6-6 34.9-14.1M480 142.3h-78.3V64.1H384v78.2h-79.7v17.8H384V241h17.7v-80.9H480z"/></svg>