<svg xmlns="http://www.w3.org/2000/svg" width="512" height="512" viewBox="0 0 512 512"><path fill="#231F20" d="M448.5 112c0-26.233-21.267-47.5-47.5-47.5H112c-26.233 0-47.5 21.267-47.5 47.5v289c0 26.233 21.267 47.5 47.5 47.5h289c26.233 0 47.5-21.267 47.5-47.5V112zM257 175.833c44.182 0 80 35.816 80 80s-35.818 80-80 80-80-35.816-80-80 35.818-80 80-80zM416.5 160.5c0 8.836-7.163 16-16 16h-48c-8.837 0-16-7.164-16-16v-48c0-8.836 7.163-16 16-16h48c8.837 0 16 7.164 16 16v48zm-15 256h-288c-8.822 0-17-8.178-17-17v-175h53.072c-3.008 10-4.572 20.647-4.572 31.583C145 286 156.65 314 177.805 335.154s49.279 32.741 79.195 32.741 58.041-11.681 79.195-32.835S369 286.016 369 256.099c0-10.936-1.563-21.599-4.572-31.599H416.5v175c0 8.822-6.178 17-15 17z"/></svg>