<svg xmlns="http://www.w3.org/2000/svg" width="512" height="512" viewBox="0 0 512 512"><path d="M220.746 102.625c-7.788 1.683-17.44 4.813-24.641 8.529-9.018 4.649-16.411 10.965-22.604 19.295-6.706 9.002-10.105 19.989-10.105 32.657 0 17.916 6.197 32.288 18.405 42.702 9.334 7.983 21.504 14.431 36.687 19.165L240 230.667V100.244s-8.234 0-19.254 2.381zM224 209.699c-12-3.743-23.912-9.088-32.051-16.048-8.621-7.355-12.673-17.534-12.673-30.545 0-9.241 2.414-16.94 7.004-23.102 4.58-6.161 9.912-11.038 16.88-14.631 6.18-3.189 13.84-5.565 20.84-7.138v91.464zm124.217 87.026c-8.432-8.289-18.002-14.296-28.414-17.84-8.949-3.075-17.441-5.848-27.465-8.477L272 265.145v145.188s12.051-.642 18.371-1.476 10.703-1.971 16.67-3.798c12.727-3.89 23.309-9.02 31.32-15.25 8.678-6.747 15.145-14.785 19.164-23.907 3.775-8.595 5.706-17.581 5.706-26.711 0-18.369-5.043-32.655-15.014-42.466zm-5.315 62.746c-2.939 6.673-7.699 12.576-14.303 17.711-6.602 5.133-15.744 9.328-26.377 12.577-4.5 1.378-8.223 2.444-14.223 3.236v-107.11c10 2.624 18.18 5.332 26.326 8.131 8.062 2.744 15.748 7.443 22.537 14.116 6.785 6.676 10.309 17.03 10.309 31.06.001 6.85-1.337 13.605-4.269 20.279z"/><path d="M411.387 303.256c-3.119-9.577-7.891-18.561-14.301-26.952-6.422-8.382-14.396-15.826-23.93-22.331-9.539-6.498-20.721-11.63-33.553-15.4-5.143-1.363-14.189-3.506-26.104-6.418-8.516-2.074-16.5-4.2-25.5-6.367V120.065c9 2.396 15.252 6.202 21.926 10.43C324.204 139.535 333.157 155 335.78 176h69.174c-.654-18-4.65-32.76-11.996-46.02-8.07-14.543-18.977-27.024-32.73-36.956-13.75-9.922-30.225-17.49-48.377-22.455C303.967 68.416 297 66.605 288 65.386V32h-64v33.167c-7 1.044-15.148 2.445-22.426 4.25-17.242 4.283-32.388 10.868-45.951 19.764-13.571 8.905-24.352 20.112-32.604 33.627-8.251 13.523-12.312 29.52-12.312 48 0 9.585 1.407 18.993 4.157 28.235 2.752 9.241 7.442 17.967 14.042 26.181 6.603 8.214 15.495 15.658 26.687 22.332 11.183 6.672 24.705 12.064 41.576 16.171 9.287 2.345 18.83 4.534 26.83 6.576v119.586c-11-2.919-21.889-7.399-30.678-13.479-9.17-6.327-16.066-13.953-21.198-23.884-4.779-9.229-7.073-20.526-7.407-32.526H96c.695 21 5.25 39.494 13.672 55.371 8.799 16.604 20.533 29.96 35.204 40.562 14.662 10.613 31.393 18.356 51.198 23.491 8.885 2.304 18.926 3.96 27.926 5.23V480h64v-34.54c10-1.069 18.957-2.69 28.527-4.879 18.701-4.273 35.645-11.036 50.316-20.276 14.662-9.24 26.621-21.128 35.611-35.681 8.98-14.541 13.545-32.085 13.545-52.619.001-9.578-1.501-19.164-4.612-28.749zm-22.483 72.962c-7.623 12.34-17.873 22.619-30.457 30.55-13.035 8.21-28.248 14.339-45.219 18.217-9.059 2.071-17.285 3.564-26.654 4.566L272 431.08V464h-32v-33.244l-13.508-1.943c-9.256-1.307-18.671-2.968-26.271-4.938-17.865-4.633-32.876-11.51-46.031-21.032-12.845-9.283-22.77-20.551-30.408-34.967-5.004-9.437-8.418-20.876-10.268-31.876h36.714c1.529 8 4.162 16.837 7.804 23.869 6.324 12.239 14.979 21.914 26.441 29.823 10.145 7.017 23.81 12.64 35.676 15.724S240 408.667 240 408.667V257.874l-11.786-3.074c-4.952-1.263-11.074-2.583-16.558-3.96-3.395-.854-6.814-1.729-10.37-2.626l-.033-.017-.051-.017c-14.952-3.64-27.533-8.472-37.411-14.365-9.487-5.657-17.021-11.92-22.399-18.611-5.271-6.56-9.029-13.533-11.17-20.722-2.307-7.755-3.476-15.721-3.476-23.675 0-15.66 3.274-28.636 10.002-39.665 7.097-11.622 16.187-20.973 27.786-28.585 12.201-8.003 25.666-13.764 41.155-17.611a211.776 211.776 0 0 1 19.926-3.954L240 78.958V48h32v31.363l13.127 1.877c7.371.999 14.236 2.404 22.637 4.699 16.389 4.482 30.91 11.189 43.023 19.929 11.691 8.443 21.182 19.333 28.133 31.862 3.805 6.865 6.504 14.27 8.137 22.27h-38.119c-5.078-19-15.352-33.637-30.172-43.021-9.254-5.861-17.561-9.215-27.373-12.251C281.766 101.75 272 101.25 272 101.25v137.142l12.529 2.951c7.631 1.837 14.184 3.644 21.453 5.415l3.92.938.812.19c11.373 2.78 19.651 4.799 24.558 6.096 11.084 3.275 20.8 7.721 28.851 13.204 8.078 5.513 14.895 11.853 20.236 18.828 5.291 6.925 9.264 14.393 11.801 22.179 2.562 7.898 3.863 15.91 3.863 23.812 0 17.39-3.74 32.266-11.119 44.213z"/></svg>