<svg xmlns="http://www.w3.org/2000/svg" width="512" height="512" viewBox="0 0 512 512"><path d="M290.9 145.9L226.5 96l64.6 102.8z"/><path d="M329 96v164h-35.9l-63.2-98 1.7 98H191V152.9l-37.1-29.1c1 1.2 2.1 2.4 3 3.6 10 13.8 15 30.7 15 50.5 0 48.9-30.5 82-76.8 82H32l200.1 156H480V214.7L329 96zm135 304H237.7L78.6 276h16.5c13.5 0 26.2-2.7 37.7-7.4 11.5-4.7 21.4-11.8 29.8-20.7 4.8-5.1 9.4-11 12.4-17.1V276h73l-.3-16.5-.7-41.9 32.6 50.7 4.7 7.6H345V129.3l.2.3L464 222.4V400z"/><path d="M90.6 150.4c11 0 23.7 3.2 23.7 28.8 0 6.9-1 16.3-6 21.8-3.6 3.9-9.6 6-17.7 6H87v-57h3m.7-16H71v89h19.5c26 0 39.9-15.6 39.9-43.9 0-28.8-14.3-45.1-39.7-45.1z"/></svg>