<svg xmlns="http://www.w3.org/2000/svg" width="512" height="512" viewBox="0 0 512 512"><path d="M319.408 82.141c11.779 9.576 36.43 29.718 36.43 68.043 0 37.295-21.547 54.934-43.094 71.545-6.695 6.561-14.385 13.608-14.385 24.701 0 11.092 7.689 17.153 13.336 21.671l18.473 14.108c22.598 18.641 43.125 35.795 43.125 70.559 0 47.373-46.721 95.232-135.003 95.232-74.428 0-110.343-34.766-110.343-72.061 0-18.139 9.245-43.827 39.525-61.48 31.798-19.142 74.952-21.657 98.023-23.172-7.178-9.078-15.382-18.67-15.382-34.265 0-8.577 2.557-13.609 5.12-19.655-5.648.5-11.283 1-16.42 1-54.408 0-85.214-39.811-85.214-79.107 0-23.186 10.802-48.902 32.856-67.543C215.724 68.031 250.637 64 278.328 64h105.725l-32.846 18.141h-31.799zm-36.453 223.755c-4.137-.501-6.684-.501-11.793-.501-4.629 0-32.348 1.002-53.895 8.049-11.3 4.046-44.146 16.125-44.146 51.918 0 35.78 35.393 61.467 90.339 61.467 49.283 0 75.432-23.156 75.432-54.404.001-25.718-16.921-39.312-55.937-66.529m14.879-95.748c11.824-11.592 12.844-27.73 12.844-36.793 0-36.281-22.086-92.73-64.671-92.73-13.339 0-27.724 6.547-35.948 16.639-8.722 10.593-11.284 24.188-11.284 37.281 0 33.764 20.005 89.727 64.163 89.727 12.826-.001 26.656-6.06 34.896-14.124"/></svg>