<svg xmlns="http://www.w3.org/2000/svg" width="512" height="512" viewBox="0 0 512 512"><path d="M256.283 47.553c70.693 0 128 54.682 118 128.931-2.072 15.388-3.422 31.483-4.26 44.759 0 0 2.402 4.253 12.664 4.253 6.071 0 14.895-1.543 27.596-6.354 2.236-.847 4.377-1.241 6.377-1.241 7.918 0 13.615 5.931 14.123 12.271.426 5.31-4.564 11.199-8.371 13.009-13.766 6.542-46.991 10.063-46.991 32.638 0 22.576 22.362 46.656 40.862 63.713S480 360.602 480 360.602s.283 21.57-31.717 29.097c-32 7.524-32.1 5.712-33.25 13.796-2.133 14.979-1.535 21.378-11.248 21.378-1.672 0-3.651-.19-6.002-.558-8.23-1.291-19.239-3.644-31.121-3.644-11.216 0-23.21 2.097-34.379 9.161-23 14.549-41.283 34.114-76.283 34.114s-53-19.565-76-34.114c-11.17-7.065-23.162-9.161-34.379-9.161-11.88 0-22.892 2.353-31.121 3.644-2.352.367-4.33.558-6.002.558-9.71 0-9.115-6.399-11.248-21.378-1.151-8.084-1.25-6.27-33.25-13.795s-32-29.097-32-29.097 45.5-4.012 64-21.068c18.5-17.058 40.862-41.134 40.862-63.71 0-22.575-33.226-26.09-46.991-32.632-3.807-1.81-8.796-7.687-8.371-12.997.507-6.336 6.196-12.251 14.107-12.25 2.004 0 4.152.38 6.393 1.229 12.749 4.829 21.588 6.342 27.662 6.342 10.204 0 12.598-4.273 12.598-4.273-.837-13.275-2.187-29.371-4.259-44.759-10-74.249 47.307-128.931 118-128.931M256.283 32H256c-41.093 0-79.215 16.208-104.591 45.341-23.982 27.534-34.375 63.345-29.265 101.292 1.416 10.51 2.46 21.231 3.21 30.618-3.97-.559-9.686-1.998-17.703-5.034-3.965-1.502-8.017-2.295-12.043-2.295-15.641-.001-28.844 11.852-30.057 27.003-1.027 12.818 8.235 24.393 17.47 28.783 4.251 2.02 9.181 3.578 14.4 5.232 6.707 2.125 14.309 4.532 19.293 7.703 4.147 2.639 4.147 4.168 4.147 5.182 0 8.66-6.191 24.691-35.688 51.888-10.499 9.681-39.055 15.501-54.588 16.897l-14.572 1.311L16 360.603c0 1.679.312 10.546 6.485 20.319 5.246 8.306 16.073 19.283 37.863 24.407a1139.713 1139.713 0 0 0 15.208 3.454c2.306.512 4.555 1.01 6.454 1.453l.081.623c.9 7.004 1.611 12.535 4.392 17.75 2.453 4.6 8.574 12.316 22.015 12.316 2.478 0 5.249-.246 8.472-.751 1.672-.263 3.386-.554 5.2-.863 7.116-1.212 15.182-2.587 23.451-2.587 10.277 0 18.732 2.188 25.846 6.688 4.531 2.867 8.892 5.972 13.509 9.26C202.967 465.481 223.358 480 256 480c32.726 0 53.293-14.582 71.439-27.446 4.576-3.244 8.898-6.309 13.377-9.142 7.113-4.5 15.568-6.688 25.846-6.688 8.27 0 16.334 1.375 23.449 2.586 1.814.311 3.529.602 5.202.864 3.223.505 5.993.751 8.472.751 13.44 0 19.562-7.715 22.015-12.313 2.781-5.214 3.492-10.746 4.392-17.749l.082-.629c1.898-.441 4.148-.941 6.455-1.452 4.023-.892 9.029-2.001 15.206-3.454 21.851-5.139 32.611-16.17 37.79-24.518 6.098-9.828 6.296-18.736 6.273-20.422l-.189-14.501-14.398-1.278c-15.413-1.396-43.8-7.219-54.301-16.9-16.281-15.011-35.688-36.199-35.688-51.893 0-1.014 0-2.546 4.15-5.186 4.985-3.174 12.589-5.584 19.297-7.71 5.217-1.654 10.144-3.217 14.394-5.236 9.236-4.39 18.498-15.978 17.471-28.807-1.215-15.166-14.424-27.046-30.072-27.046-4.021 0-8.068.76-12.027 2.259-8.027 3.041-13.743 4.41-17.705 4.962.747-9.319 1.791-20.12 3.211-30.67 5.111-37.948-5.281-73.509-29.264-101.042C335.498 48.208 297.376 32 256.283 32z"/><path d="M256 229c-20.838 0-40.604-8.29-55.657-23.343a8 8 0 1 1 11.313-11.313C223.688 206.374 239.436 213 256 213c16.387 0 32.15-6.64 44.385-18.698a8 8 0 0 1 11.23 11.395C296.368 220.725 276.617 229 256 229z"/><ellipse cx="208" cy="152" rx="16" ry="24"/><ellipse cx="304" cy="152" rx="16" ry="24"/></svg>