<svg xmlns="http://www.w3.org/2000/svg" width="512" height="512" viewBox="0 0 512 512"><path d="M310.143 64c31.337 0 59.096 2.607 88.137 8.364l-5.06 34.148c-29.405-4.319-55.659-6.429-79.853-6.429-35.025 0-58.535 6.153-74.129 19.365C220.142 135.627 218 158.428 218 174.17V193h136.051l-2.383 16H218v80h121.752l-2.384 16H218v27.83c0 19.546 2.338 44.061 21.084 60.274 15.042 13.01 37.921 18.812 74.258 18.812 24.534 0 50.197-2.055 79.771-6.42l5.014 34.138C369.096 445.393 341.386 448 310.15 448c-52.591 0-91.43-9.08-115.565-26.987C172.615 404.711 162 380.361 162 346.57V305h-50v-16h50v-80h-50v-16h50v-27.57c0-33.791 10.613-58.142 32.582-74.442C218.715 73.08 257.552 64 310.143 64m.066-16C195.479 48 146 89.225 146 165.43V177H96v48h50v48H96v48h50v25.57C146 422.774 195.481 464 310.211 464c35.25 0 67.777-3.123 105.789-11.866l-9.411-64.96c-37.323 6.244-66.942 8.742-93.206 8.742-64.275 0-79.383-18.739-79.383-63.086V321h117.162l7.148-48H234v-48h131.461l7.149-48H234v-2.83c0-35.92 15.159-58.086 79.434-58.086 26.264 0 55.959 2.498 93.281 8.742L416 60c-38.012-8.743-70.542-12-105.791-12z"/></svg>