<svg xmlns="http://www.w3.org/2000/svg" width="512" height="512" viewBox="0 0 512 512"><path fill-rule="evenodd" clip-rule="evenodd" d="M209.877 154.114c-4.258-11.323-9.176-10.515-12.45-10.639-3.277-.121-6.146-.061-10.573.011-3.746.061-9.882 1.026-15.232 6.413-5.357 5.378-20.366 18.312-21.404 45.725-1.031 27.408 18.08 54.643 20.749 58.455 2.667 3.826 36.494 63.236 92.719 87.67 56.231 24.427 56.525 16.981 66.84 16.435 10.325-.54 33.726-12.246 38.899-25.073 5.172-12.827 5.588-23.979 4.271-26.358-1.316-2.371-5-3.911-10.51-6.9-5.516-2.995-32.595-17.498-37.673-19.55-5.081-2.044-8.787-3.108-12.742 2.329-3.957 5.422-15.191 17.569-18.596 21.168-3.42 3.6-6.711 3.934-12.226.93-5.5-2.988-23.373-9.548-44.098-29.317-16.126-15.38-26.711-34.043-29.779-39.736-3.069-5.697-.02-8.604 2.9-11.269 2.618-2.407 5.857-6.301 8.792-9.449 2.919-3.148 3.949-5.43 5.961-9.083 2.007-3.645 1.2-6.932-.102-9.771-1.303-2.838-11.49-30.668-15.746-41.991z"/><path d="M260.062 64c50.249 0 97.478 19.402 132.982 54.632C428.482 153.796 448 200.533 448 250.232c0 49.694-19.518 96.43-54.956 131.596-35.507 35.232-82.735 54.637-132.982 54.637-31.806 0-63.24-8.023-90.906-23.201l-12.017-6.593-13.063 4.149-61.452 19.522 19.375-57.149 4.798-14.151-7.771-12.763c-17.593-28.898-26.892-62.111-26.892-96.047 0-49.699 19.518-96.436 54.957-131.601C162.596 83.402 209.819 64 260.062 64m0-32C138.605 32 40.134 129.701 40.134 250.232c0 41.229 11.532 79.791 31.559 112.687L32 480l121.764-38.682c31.508 17.285 67.745 27.146 106.298 27.146C381.535 468.464 480 370.749 480 250.232 480 129.701 381.535 32 260.062 32z"/></svg>