<svg xmlns="http://www.w3.org/2000/svg" width="512" height="512" viewBox="0 0 512 512"><path d="M255.9 64C150.2 64 64 150.2 64 256.1 64 361.9 150.2 448 255.9 448c8.5 0 16.8-.5 24.9-1.8 85.7-11 153.8-78.7 165.3-164.1 1.3-8.5 1.9-17.2 1.9-26C448 150.2 361.8 64 255.9 64zM83.4 256.1c0-25 5.4-48.8 15-70.2l82.3 225.5c-57.6-28-97.3-87.1-97.3-155.3zm194.9 171.2c-7.3.9-14.8 1.4-22.4 1.4-16.9 0-33.2-2.5-48.6-7.1l18.8-55h.1l32.7-95.5L312 416.5c.4.8.9 1.6 1.3 2.3-11.2 4-22.9 6.8-35 8.5zm1.5-252.2c10.4-.5 19.7-1.6 19.7-1.6 9.4-1 8.2-14.8-1.1-14.2 0 0-28 2.2-46 2.2-16.9 0-45.5-2.2-45.5-2.2-9.2-.6-10.4 13.7-1 14.2 0 0 8.7 1.1 18.1 1.6l26.9 73.7-37.8 113.3-62.9-187c10.5-.5 19.8-1.6 19.8-1.6 9.2-1 8.2-14.8-1.1-14.2 0 0-27.9 2.2-46 2.2-3.3 0-7.1-.1-11.1-.2 30.8-46.8 83.9-77.7 144.1-77.7 45 0 85.9 17.2 116.6 45.2-.8 0-1.5-.1-2.3-.1-17 0-29 14.8-29 30.7 0 14.2 8.2 26.2 16.9 40.4 6.6 11.5 14.3 26.3 14.3 47.6 0 14.8-4.4 33.4-13.1 55.7L342 360.7l-62.2-185.6zm62.9 230.2l13.7-39.7 39-112.8c9.9-24.6 13.1-44.3 13.1-61.8 0-6.3-.4-12.3-1.1-17.8 13.5 24.6 21.2 52.8 21.2 82.9 0 8-.5 15.8-1.5 23.5-7.4 53.7-39.5 99.6-84.4 125.7z"/></svg>