<svg xmlns="http://www.w3.org/2000/svg" width="512" height="512" viewBox="0 0 512 512"><path d="M242.1 275.6l-18.2-13.7-.1-.1c-5.8-4.6-10-8.3-10-14.7 0-7 5-11.8 10.9-17.4l.5-.4c20-15.2 44.7-34.3 44.7-74.6 0-26.9-11.9-44.7-23.3-57.7h13L320 64H186.5c-25.3 0-62.7 3.2-94.6 28.6l-.1.3C70 110.9 57 137.4 57 163.5c0 21.2 8.7 42.2 23.9 57.4 21.4 21.6 48.3 26.1 67.1 26.1 1.5 0 3 0 4.5-.1-.8 3-1.2 6.3-1.2 10.3 0 10.9 3.6 19.3 8.1 26.2-24 1.9-58.1 6.5-84.9 22.3-39.4 22.7-42.5 56-42.5 65.6 0 38.2 35.7 76.8 115.5 76.8 91.6 0 139.5-49.8 139.5-99 0-37.1-22.8-55.6-44.9-73.5zM116.7 139.9c0-13.4 3-23.5 9.3-30.9 6.5-7.9 18.2-13.1 29-13.1 19.9 0 32.9 15 40.4 27.6 9.2 15.5 14.9 36.1 14.9 53.6 0 4.9 0 20-10.2 29.8-7 6.7-18.7 11.4-28.6 11.4-20.5 0-33.5-14.7-40.7-27-10.4-17.8-14.1-38.2-14.1-51.4zM237.8 368c0 27.4-25.2 44.5-65.8 44.5-48.1 0-80.3-20.6-80.3-51.3 0-26.1 21.5-36.8 37.8-42.5 18.9-6.1 44.3-7.3 50.1-7.3 3.9 0 6.1 0 8.7.2 36.6 25.2 49.5 36.1 49.5 56.4z"/><path d="M402 142V64h-34v78h-80v34h80v81h34v-81h78v-34z"/></svg>