<svg xmlns="http://www.w3.org/2000/svg" width="512" height="512" viewBox="0 0 512 512"><g fill="#010101"><path d="M254.7 101.3c-.6 1-1.2 2-1.7 3.1 1.8-3.5 4.3-6.5 7.4-8.7-2.1 1.3-4.1 3.1-5.7 5.6-.6 1 1.6-2.5 0 0z"/><path d="M426.3 396c-6.7-4-13.2-11-12-18.8 2.3-15.3 2.5-21.5-.2-25.8-1.899-3.2-5.5-5-8.6-5.801 2-2.5 3.1-5.399 3.8-10.899 1.842-14.168-3.239-30.67-6.61-44.243-4.445-17.9-10.319-34.014-20.432-49.522-16.489-25.288-37.253-46.804-51.857-73.435-9.7-29-4.301-47.1-4.801-66.2C324.7 64 298.7 32 261 32h-14c-37.5 0-58 26.9-58 60a17033.74 17033.74 0 0 1 2 50c.769 19.756 1.98 37.667-8 55.3-7.033 12.488-19.571 22.43-28.592 33.478-9.525 11.665-13.06 23.669-17.859 37.619-5.987 17.401-21.275 30.906-24.886 48.929-1.658 8.271 2.726 17.857-.83 24.693-3.698 7.109-.813 14.469-2.833 21.682-3.505 11.729-20.731 10.729-30.215 11.508-17.602 1.443-11.051 17.988-7.843 29.701 5.598 20.435-19.54 42.078 11.032 50.471 13.989 3.84 28.586 5.13 42.727 8.32 13.981 3.154 26.917 8.612 40.396 13.262 10.469 3.611 20.262 4.146 30.323-1.232 10.982-5.87 18.947-15.083 31.691-17 24.707-3.716 54.829-4.169 79.373.63 7.507 1.468 10.075 6.525 14.905 11.766 8.145 8.838 21.514 10.125 32.794 8.22 11.89-2.01 20.846-9.466 29.686-17.112 12.526-10.835 26.137-17.996 40.791-25.547 7.439-3.833 22.178-9.388 24.159-18.903 2.332-11.212-14.177-17.402-21.519-21.785zM202 451.3c-1.3 13-13.9 20.3-25.4 19.3-19.502-1.649-37.86-12.237-57.164-15.75-9.393-1.709-47.351-3.173-46.943-17.079.215-7.361 5.751-11.666 7.567-18.415 2.811-10.449-5.753-19.932-6.32-30.16-.447-8.081 10.73-7.607 16.288-8.053 8.761-.702 19.157-2.012 23.572-11.043 1.6-3.3-.5-15 1.9-21.8 3.527-10.155 15.489-8.949 23.3-4.899 17.762 9.067 28.943 35.546 38.533 51.821 9.725 16.506 26.712 35.621 24.667 56.078zm116.3-65.6c2.289 11.787 4.224 24.387 1.7 36.3-2.016 9.516-8.562 15.614-12.7 24-2.2-6.8 11.3-16.7 9.8-33.7-.042-.475-.947-10.882-1.036-10.834-1.979 1.082-3.825 5.075-5.304 6.73-4.809 5.383-10.771 9.658-16.729 13.677-13.797 9.306-29.221 15.058-45.83 16.627-21 2-38-10.5-38-10.5 2.517 8.305 8.992 21 1.1 28.3 1.743-15.648-4.876-28.06-11.6-41.7 46.374-24.639-41.363-64.397-53-79.8-10.476-13.896-5.553-31.83-2.7-43.5-3.443 13.775-3.959 41.956 14 46.8 7.922 2.169 5.605-37.071 5.984-41.463 1.58-18.312 7.721-35.997 18.343-51.015 3.399-4.806 1.863-9.533 2.673-15.322 1.693-10.668 7.295-20.547 13.488-29.225 5.169-7.243 1.735-12.618 3.014-21.055.727-4.795 5.118 3.193 5.798 4.279 4 6.5 16.7 22.7 24.7 22 13.277-1.161 24.692-15.938 36.015-22.046 3.591-1.937 14.41-5.242 15.866-9.632 1.768-5.33-12.666-.161-14.114.583-10.782 5.535-31.018 21.448-43.867 15.295-8.762-4.195-10.691-14.994-17.2-20.5 15.4 13.6 21.5 10.5 27.6 9.1 9.665-2.182 18.797-6.486 27.8-10.5 4.217-1.88 20.107-4.041 22.301-8.7 2.745-5.834-5.05-6.726-8.068-3.58-6.251 6.515-15.853 8.981-24.097 11.787-18.885 6.427-37.644 9.131-51.835-8.607-8.354-10.212 15.558-22.504 22.2-28.8 0 0 1-7.2-.6-12.7-1.9-6.5-7.8-9.3-11.9-8.1-4.1 1.1-8 5.5-6.8 14.8 1 8.3 7 11 7 11s-2.7 3.5-5.2 4.7c0 0-.8-.3-3.5-6.3s-6.6-19.5-.3-31.1c6.3-11.6 19.6-5.2 23.8 3.8 3.9 8.3 2.4 22.7 2.4 22.7 3.358-.843 6.835-1.3 10.3-1.3 4.242 0 6.814 4.563 10.6 4.8-.635 0-.564-18.124-.233-20.078 1.099-6.49 4.112-13.619 9.933-17.222 16.087-11.491 34.6 3.916 34.6 21.2.024 4.486-.137 9.215-1.199 13.6-.659 2.637-1.582 8.469-5.114 9.177-1.145.23-10.683-.431-7.985-3.277 12.807-12.812-1.822-38.207-17.4-24.5-5.601 4.199-5.483 13.833-4.801 20 1.098 9.141 20.51 11.541 26.852 13.78 8.224 2.903 7.943 9.626 6.679 17.116-1.9 11.26-2.815 18.792 4.381 28.214 7.344 9.616 12.929 20.086 15.915 31.878 1.483 5.859 1.665 10.843 5.621 15.57 5.983 7.151 10.619 14.805 13.291 23.817 5.225 17.621 6.513 35.422 6.162 53.625-.5 8.199-2.1 15 8.3 9.699 4-2 6.5-2.899 11-3.699 3.101-6.301 4.4-18.301 4.5-24.301.2-13.5-.3-41.5-27.699-71.5 0 0 28.5 21.7 33 62 2.5 22.301-2 34.4-2 34.4 5.3 1.3 10.8 5.3 13.6 9.8-.133-.22 1.038 1.748 1.179 1.864-9.811-8.171-31.708-12.859-39.679.236-2 3.3-3.1 7.6-3.2 11.699-7.1-1.199-12.399 0-16.8 4.9C313.5 358.1 316.3 375.3 318.3 385.7c2 10.3-2-10.4 0 0zm-97.7-260.8c-.2-4.9-2.1-9-4.7-10.8.3-.3.8-.7 1.7-.4 1.4.4 3.5 2.7 4.3 6.3.7 2.9.4 7.7-1.4 7.7-.002-.934.031-1.867.1-2.8-.2-4.9 0 .9 0 0zm54.7-12c.4-.3 1.101-.6 2.3-.3 1.801.4 4.4 2.8 5.301 6.2.699 2.8.1 7.4-2.2 7.3-.005-.903.062-1.803.2-2.7-.101-4.6-2.301-8.6-5.601-10.5.4-.3 3.3 1.9 0 0zm137.1 320c-17.504 7.553-31.304 19.968-47.117 30.19-13.824 8.937-38.156 8.313-40.022-12.879-1.565-17.776 4.184-35.288 1.84-53.357-1.587-12.239-8.534-28.906-2.301-40.854 2.7-5.1 8.101-5.5 12.5-4 3.193 13.267 13.932 23.6 28 23.6 17.031 0 23.542-14.008 34-24.5 3.4.2 7.4 1.101 8.8 4.801 2.301 5.8-1.899 17.5-1.8 22.3.3 15.7 9 19.2 26.4 29C448 416 436.9 422.3 412.4 432.9c-24.1 10.4 24.5-10.6 0 0z"/></g></svg>