<svg xmlns="http://www.w3.org/2000/svg" width="512" height="512" viewBox="0 0 512 512"><path d="M255.82 144c88.269 0 159.824-28.654 159.824-64S344.089 16 255.82 16C167.552 16 95.997 44.654 95.997 80s71.555 64 159.823 64zm0-110.959c69.729 0 126.26 19.234 126.26 42.959s-56.531 42.959-126.26 42.959c-69.729 0-126.258-19.234-126.258-42.959s56.529-42.959 126.258-42.959z"/><path d="M256.57 160c-88.269 0-160.567-28.654-160.567-64 0 0-.003 33.999 7.997 40v240c0 35.346 63.732 64 152 64 88.269 0 152-28.654 152-64V136c8-7.438 7.708-34.853 7.817-40-1.152 34.946-71.701 64-159.247 64zM376 375.588c0 2.232-7.961 10.682-29.423 18.688-23.724 8.85-55.765 13.724-90.304 13.724s-66.83-4.874-90.554-13.725C144.257 386.27 137 377.82 136 375.588v-79.564c18 9.721 42.742 17.115 72.156 20.979l1.588.237c5.743 20.068 24.192 34.76 46.082 34.76s40.338-14.689 46.084-34.754l1.755-.244C333.08 313.139 358 305.744 376 296.023v79.565zm0-111.565c-18 9.831-43.476 17.284-73.325 21.11l-2.61.195C292.791 268.097 275.723 256 255.859 256c-19.867 0-36.919 12.102-44.19 29.34l-2.514-.206c-29.85-3.826-55.155-11.279-73.155-21.11v-91.265C170 185.25 211.923 192 256.499 192 300.665 192 343 185.287 376 173.045v90.978zM256.272 464c.293 0 .583-.006.876-.007-.351.001-.699.005-1.051.005l.175.002z"/><path d="M408 415.999V400c0 36.001-63.432 64-152 64-88.569 0-152-28.654-152-64v15.999L96.261 432c0 6.994 2.938 13.725 8.117 20.025C125.37 477.562 185.471 496 256.273 496c70.801 0 130.87-18.438 151.863-43.975 5.18-6.301 7.923-13.031 7.923-20.025L408 415.999z"/></svg>