<svg xmlns="http://www.w3.org/2000/svg" width="512" height="512" viewBox="0 0 512 512"><path d="M368 0v40h69.873l-93.046 91.97c-8.529-8.249-15.132-12.586-15.132-12.586C308.841 104.694 283.422 96 256 96c-34.525 0-65.86 13.669-88.903 35.894l-17.333-17.131 35.833-35.833-32.527-32.527-36.022 36.021L74.127 40H144V0H0v144h40V67.806l46.085 45.582-35.683 35.682 32.526 32.526 35.862-35.861 22.185 21.942c-8.395 17.065-13.118 36.267-13.118 56.578C127.857 286.884 173 338.989 232 350.25V402h-72v46h72v64h48v-64h72v-46h-72v-51.75c58-11.261 104.222-63.397 104.222-126.025 0-20.202-4.794-39.738-13.094-56.649L472 67.806V144h40V0H368zM255.929 304.402c-44.156 0-80.079-35.968-80.079-80.178 0-44.211 35.923-80.18 80.079-80.18 44.155 0 80.078 35.969 80.078 80.18 0 44.211-35.923 80.178-80.078 80.178z"/></svg>