<svg xmlns="http://www.w3.org/2000/svg" width="512" height="512" viewBox="0 0 512 512"><path d="M413.7 133.4c-2.4-9-4-14-4-14-2.6-9.3-9.2-9.3-19-10.9l-53.1-6.7c-6.6-1.1-6.6-1.1-9.2-6.8-8.7-19.6-11.4-31-20.9-31h-103c-9.5 0-12.1 11.4-20.8 31.1-2.6 5.6-2.6 5.6-9.2 6.8l-53.2 6.7c-9.7 1.6-16.7 2.5-19.3 11.8 0 0-1.2 4.1-3.7 13-3.2 11.9-4.5 10.6 6.5 10.6h302.4c11 .1 9.8 1.3 6.5-10.6zM379.4 176H132.6c-16.6 0-17.4 2.2-16.4 14.7l18.7 242.6c1.6 12.3 2.8 14.8 17.5 14.8h207.2c14.7 0 15.9-2.5 17.5-14.8l18.7-242.6c1-12.6.2-14.7-16.4-14.7z"/></svg>