<svg xmlns="http://www.w3.org/2000/svg" width="512" height="512" viewBox="0 0 512 512"><path d="M144 220s.1.1 0 0zm240-91.7c0-17.8-14.4-32.2-32.1-32.2-17.7 0-32.1 14.4-32.1 32.1 0 12.1 6.7 22.7 16.6 28.2 1.3 1.5 2.2 4.5 2.2 6v.4c-.8 17.6-3.8 31.9-7.1 41.7-4.3 12.6-38.2 39.6-51.5 42.2-5.8 1.2-7.9-.6-7.9-10.2V96.1c0-1.5.2-3.5 1.9-5 8.6-5.8 14.3-15.6 14.3-26.8 0-17.8-14.4-32.2-32.1-32.2-17.7 0-32.1 14.4-32.1 32.2 0 11.3 5.8 21.3 14.6 27l.1.1c.1.1.2.1.4.2s.4.2.6.4c2.3 1.5 3.3 3 3.3 4.2v196.3c0 7-1.1 12.3-8.4 11.8s-41.7-23.5-51.4-44.1c-4.5-9.5-6.8-18.8-6.8-28v-.5c0-3.1 0-11.3 3.2-13.6 7.8-5.9 12.8-15.2 12.8-25.7 0-17.8-14.4-32.2-32.1-32.2s-32.4 14.2-32.4 32c0 11.9 6.5 22.3 16 27.8 2.4 1.5 3 2.9 3.8 10.6s3 24.6 9.1 39.9c7.3 18.6 20.9 32.6 39.7 45.2 13.6 9.3 25.3 16.6 32.1 26.4s10.2 13.5 10.2 27c0 0 0-.9 0 0 0 12.8-4 14-9.3 17.8-14.1 8.7-23.5 24.2-23.5 42v1.1c0 27.5 22.3 49.8 49.8 49.8 27.5 0 49.8-22.3 49.8-49.8 0-13.3-5.2-25.4-13.7-34.3-2.9-3.2-6-6-9.6-8.3-7.5-5.2-10.3-11.5-10.3-18.1v-24.1c0-25.1 4.1-41.1 11.1-53.3 7.3-12.7 18.3-22.6 35.4-34.2 18.8-12.6 32.2-26.6 39.6-45.2 5.7-14.4 7.6-31 8.6-50.9.1-1.8 1.4-5.8 3.3-6.8 8.3-5.8 13.9-15.5 13.9-26.5zm-223.9 80c-8.9 0-16.1-7.3-16.1-16.2s7.2-16.2 16.1-16.2 16.1 7.3 16.1 16.2-7.2 16.2-16.1 16.2zm95.9-128c-8.9 0-16.1-7.3-16.1-16.2S247.1 48 256 48s16.1 7.3 16.1 16.2-7.2 16.1-16.1 16.1zm95.9 64c-8.9 0-16.1-7.3-16.1-16.2S343 112 351.9 112s16.1 7.3 16.1 16.2-7.2 16.1-16.1 16.1z"/></svg>