<svg xmlns="http://www.w3.org/2000/svg" width="512" height="512" viewBox="0 0 512 512"><path d="M255.9 217H191v78h64.9l47.1 51.3V165.7z"/><path d="M364.5 60.1c-.4-.2-.7-.4-1.1-.6C331.5 42 294.9 32 256 32 132.3 32 32 132.3 32 256c0 84.3 46.6 157.6 115.4 195.9.4.2.7.5 1.1.7C180.5 470 217.1 480 256 480c123.7 0 224-100.3 224-224 0-84.3-46.6-157.7-115.5-195.9zm29.4 295.3L336 297.1v76.7l19.6 19.9c-28 20.3-62.3 32.7-99.5 32.7-21.6 0-42.3-4.2-61.3-11.5-6.5-2.5-12.9-5.3-19-8.6-53.6-28.7-90.1-85.2-90.1-150.3 0-37.2 12.4-71.4 32.7-99.4l35.3 35.4h76.7l-73.6-73.8c28-20.2 62.1-32.6 99.4-32.6 21.6 0 42.2 4.2 61.3 11.5 6.1 2.4 12.2 5 17.9 8 54.2 28.5 91.3 85.3 91.3 150.8-.2 37.4-12.5 71.5-32.8 99.5z"/></svg>