<svg xmlns="http://www.w3.org/2000/svg" width="512" height="512" viewBox="0 0 512 512"><path d="M271 38.6c-.3-.4-.7-.7-.9-1l-.1-.1c-3.6-3.4-8.5-5.5-13.9-5.5-5.5 0-10.4 2.1-13.9 5.5l-.1.1c-.3.3-.6.6-.9 1-6.1 6.3-13.8 14.4-22.4 24.1-17.4 19.7-38.6 46-58.5 76.8-33.4 51.8-62.9 116.1-64.1 183.1 0 1.3-.1 2.7-.1 4 0 19.7 3.9 38.5 10.9 55.8 4.1 10 9.2 19.4 15.2 28.2C150.7 452.4 200 480 256 480c88.4 0 160-68.7 160-153.4 0-127.9-105.2-247.4-145-288zM256 424c-15.8 0-30.7-3.7-43.9-10.1 65.9-14.4 118.4-64.7 135.8-129.5 5.2 12.1 8.2 25.5 8.2 39.6-.1 55.2-44.9 100-100.1 100z"/></svg>